<svg xmlns="http://www.w3.org/2000/svg" viewBox="0 0 29.36 33.56"><defs><style>.cls-1{fill:#165c7d}</style></defs><title>Asset 6</title><g id="Layer_2" data-name="Layer 2"><g id="Layer_1-2" data-name="Layer 1"><path class="cls-1" d="M25.07 20.77a2 2 0 0 1-.78.14 9.09 9.09 0 0 1-3.21-1c.54 0 1-.06 1.48-.06a5.65 5.65 0 0 1 1.85.2c.79.2.8.61.67.7zM11 20.89c.31-.55.63-1.14 1-1.76a33.6 33.6 0 0 0 1.69-3.68 12.19 12.19 0 0 0 2.78 3.46l.43.35a35.62 35.62 0 0 0-5.9 1.63zm2.58-14.35c.45 0 .7 1.12.72 2.17a4.46 4.46 0 0 1-.53 2.29 11.4 11.4 0 0 1-.38-2.91s0-1.59.18-1.59M4.84 26.68a9.63 9.63 0 0 1 2.73-3.26l.53-.49c-1.54 2.46-2.58 3.44-3.26 3.75zm20.66-7.36a4.58 4.58 0 0 0-2.95-.69 24.63 24.63 0 0 0-3.54.26 8.94 8.94 0 0 1-1.64-1.14 12 12 0 0 1-3-4.61c0-.17.08-.31.11-.47A29.7 29.7 0 0 0 15 7.28a1.55 1.55 0 0 0-.09-.39l-.06-.16a1.28 1.28 0 0 0-1.17-.89h-.36a1.31 1.31 0 0 0-1.32.84c-.43 1.59 0 4 .82 7l-.21.5c-.58 1.4-1.3 2.82-1.94 4.07l-.08.16a68.56 68.56 0 0 1-1.83 3.37l-.57.3s-1 .54-1.25.68C5 24 3.73 25.27 3.51 26.31a.87.87 0 0 0 .33 1l.55.28a1.66 1.66 0 0 0 .75.18c1.38 0 3-1.72 5.2-5.58a52 52 0 0 1 8-1.9 13.8 13.8 0 0 0 5.84 1.85 2.65 2.65 0 0 0 .69-.08 1.17 1.17 0 0 0 .68-.47 2.48 2.48 0 0 0 .27-1.67 1.12 1.12 0 0 0-.33-.57z"/><path class="cls-1" d="M27.27 30.93a.53.53 0 0 1-.52.52H2.62a.53.53 0 0 1-.52-.52V2.62a.53.53 0 0 1 .52-.52h16.26v7.34a1 1 0 0 0 1 1h7.34zM23.64 5.72A28.65 28.65 0 0 1 26 8.39h-5v-5a28.24 28.24 0 0 1 2.66 2.38zM28 7.51a29.8 29.8 0 0 0-2.86-3.27 29.79 29.79 0 0 0-3.27-2.86C20.17.14 19.35 0 18.88 0H2.62A2.63 2.63 0 0 0 0 2.62v28.31a2.63 2.63 0 0 0 2.62 2.62h24.12a2.62 2.62 0 0 0 2.62-2.62V10.49c0-.47-.14-1.29-1.38-3"/></g></g></svg>