<svg id="Layer_1" data-name="Layer 1" xmlns="http://www.w3.org/2000/svg" viewBox="0 0 15 15"><defs><style>.cls-1{fill:#fff}</style></defs><title>Bell circle fill white</title><path class="cls-1" d="M7.5 0A7.5 7.5 0 1 0 15 7.5 7.5 7.5 0 0 0 7.5 0zm5 11.18a.38.38 0 0 1-.37.38H9.16a1.69 1.69 0 0 1-3.32 0H2.91a.38.38 0 0 1-.37-.38v-.3a.38.38 0 0 1 .37-.38 1.12 1.12 0 0 0 1.18-1.17V6a3.22 3.22 0 0 1 2.5-3.2.87.87 0 0 1-.06-.32 1 1 0 0 1 .27-.67 1 1 0 0 1 .66-.28 1 1 0 0 1 1 .93.88.88 0 0 1-.06.33A3.21 3.21 0 0 1 10.91 6v3.33a1.15 1.15 0 0 0 1.18 1.17.38.38 0 0 1 .37.38z"/><path class="cls-1" d="M7.47 2.7a.19.19 0 0 0 .19-.19.2.2 0 0 0-.19-.19.21.21 0 0 0-.19.19.2.2 0 0 0 .06.14.14.14 0 0 0 .13.05zM7.5 12.18a.93.93 0 0 0 .88-.62H6.62a.93.93 0 0 0 .88.62zM10.16 9.32V6A2.51 2.51 0 0 0 7.5 3.5 2.51 2.51 0 0 0 4.84 6v3.33a2.07 2.07 0 0 1-.64 1.48h6.6a2.15 2.15 0 0 1-.64-1.48z"/></svg>