<svg xmlns="http://www.w3.org/2000/svg" viewBox="0 0 792 612"><defs><style>.cls-1{fill:none}.cls-2{isolation:isolate}.cls-3{fill:#64bc47}.cls-4{opacity:.5;mix-blend-mode:multiply}.cls-5{clip-path:url(#clip-path)}.cls-6{fill:#fff}</style><clipPath id="clip-path"><path class="cls-1" d="M322.38 229.12h207.1V428.3h-207.1z"/></clipPath></defs><title>Artboard 1</title><g class="cls-2"><g id="Layer_3" data-name="Layer 3"><path class="cls-3" d="M404.75 439.13A128.63 128.63 0 1 0 276.12 310.5a128.63 128.63 0 0 0 128.63 128.63"/><path class="cls-4 cls-5 cls-3" d="M418.09 257.6l-13.34-15.51-30.61-6-25.85 11.93-16.9 25.85 4 28.34 15.08 17.66 106.91 107.42s47.43-17 63.09-65.33c.53-1.64-102.38-104.36-102.38-104.36"/><path class="cls-6" d="M474.75 383.88l-30.13-.19a3 3 0 0 1-2.14-.92l-11.61-12.06a3 3 0 0 1-.84-2l-.19-13.43-13.43-.28a3 3 0 0 1-2.91-3.39l1.2-8.87c-3.14-2.69-9-7.85-12-11.62a51.46 51.46 0 1 1 27-31.27c1.7 4.21 19.83 22.92 48.21 47.94a3 3 0 0 1 1 2.35L477.74 381a3 3 0 0 1-2.99 2.88zm-28.85-6.16l26 .16 1-26.54c-3.33-3-14-12.46-24.32-22.33-26.43-25.18-25.5-28.1-24.74-30.44a45.54 45.54 0 1 0-21.57 26.08 3 3 0 0 1 4.15 1.36c.87 1.87 7.67 8.32 13.48 13.22a3 3 0 0 1 1 2.69l-1 7.16 13 .24a3 3 0 0 1 2.94 3l.21 15.15z"/><path class="cls-6" d="M364.14 280.45a13.13 13.13 0 1 1 13.13-13.13 13.15 13.15 0 0 1-13.13 13.13zm0-20.28a7.15 7.15 0 1 0 7.15 7.15 7.16 7.16 0 0 0-7.15-7.15z"/><path class="cls-1" d="M259 168.87h274.38v270.27H259z"/><path class="cls-6" d="M473.79 380a3 3 0 0 1-2.12-.88l-55-55a3 3 0 0 1 4.33-4.22l55 55a3 3 0 0 1-2.12 5.11zM323.12 185.23v64.15a5.57 5.57 0 0 1-5.57 5.57H259z"/><path class="cls-3" d="M313 250h-48.36a5.33 5.33 0 0 1-5.32-5.32v-70.5a5.33 5.33 0 0 1 5.32-5.32h37.6a5.29 5.29 0 0 1 3.76 1.54l10.71 10.6a5.36 5.36 0 0 1 1.58 3.79v59.92A5.33 5.33 0 0 1 313 250zm-48.33-78.55a2.74 2.74 0 0 0-2.73 2.73v70.5a2.74 2.74 0 0 0 2.73 2.73H313a2.74 2.74 0 0 0 2.73-2.73v-59.81h-13.47v-13.41h-37.62zm40.2 10.83h9.5l-9.5-9.37z"/><path class="cls-3" d="M274.37 179.08H277a.7.7 0 0 1 .71.71v3.91a.71.71 0 0 0 .71.71h3.91a.7.7 0 0 1 .7.71v2.66a.71.71 0 0 1-.7.71h-3.91a.71.71 0 0 0-.71.71v3.9a.7.7 0 0 1-.71.71h-2.66a.7.7 0 0 1-.71-.71v-3.9a.71.71 0 0 0-.7-.71h-3.9a.71.71 0 0 1-.71-.71v-2.68a.71.71 0 0 1 .71-.71H273a.71.71 0 0 0 .7-.71v-3.91a.7.7 0 0 1 .71-.71"/><path class="cls-1" d="M259 168.87h274.38v270.27H259z"/><path class="cls-3" d="M306.53 237.6h-13a1.29 1.29 0 0 1 0-2.59h13a1.29 1.29 0 0 1 0 2.59zm0-16.5h-13a1.29 1.29 0 0 1 0-2.59h13a1.29 1.29 0 0 1 0 2.59zm-19.42 0h-18.92a1.29 1.29 0 0 1 0-2.59h18.91a1.29 1.29 0 0 1 0 2.59zm19.42-7.28h-13a1.29 1.29 0 0 1 0-2.59h13a1.29 1.29 0 0 1 0 2.59zm-19.42 0h-18.92a1.29 1.29 0 0 1 0-2.59h18.91a1.29 1.29 0 0 1 0 2.59zm19.52-7.3h-38.44a1.29 1.29 0 0 1 0-2.59h38.44a1.29 1.29 0 1 1 0 2.59z"/><path class="cls-1" d="M259 168.87h274.38v270.27H259z"/></g></g></svg>