<svg xmlns="http://www.w3.org/2000/svg" viewBox="0 0 792 612"><defs><style>.cls-1{fill:none}.cls-2{isolation:isolate}.cls-3{fill:#871b54}.cls-4{opacity:.5;mix-blend-mode:multiply}.cls-5{clip-path:url(#clip-path)}.cls-6{fill:#fff}.cls-7{fill:#871a54}</style><clipPath id="clip-path"><path class="cls-1" d="M320.8 262.8h219.17v182.66H320.8z"/></clipPath></defs><title>Artboard 1</title><g class="cls-2"><g id="Layer_2" data-name="Layer 2"><path class="cls-3" d="M406.06 446.19A130.19 130.19 0 1 0 275.86 316a130.19 130.19 0 0 0 130.2 130.19"/><path class="cls-4 cls-5 cls-3" d="M531 354.16l-40.95-40.46-11-7.32-19.2-18.75-19-17.83.46 20.57-109.27-.46v10.3l-2.24 46.85 97.39 97.39c51.66-8.3 88.47-44.58 103.79-90.3"/><path class="cls-6" d="M441.16 370a2.78 2.78 0 0 1-2.78-2.78V348H331.32a2.78 2.78 0 0 1-2.78-2.78v-55.4a2.78 2.78 0 0 1 2.78-2.78h107.06V268a2.78 2.78 0 0 1 4.76-2L492 315.63a2.78 2.78 0 0 1 0 3.9l-48.89 49.61a2.78 2.78 0 0 1-1.95.86zm-107.07-27.55h107.07a2.78 2.78 0 0 1 2.78 2.78v15.18l42.21-42.83-42.21-42.82v15.07a2.78 2.78 0 0 1-2.78 2.78H334.09zM323.86 186.17v64.15a5.57 5.57 0 0 1-5.57 5.57h-58.54z"/><path class="cls-7" d="M313.72 250.95h-48.33a5.33 5.33 0 0 1-5.32-5.32v-70.5a5.33 5.33 0 0 1 5.32-5.32H303a5.29 5.29 0 0 1 3.74 1.53l10.73 10.58a5.36 5.36 0 0 1 1.58 3.79v59.92a5.33 5.33 0 0 1-5.33 5.32zm-48.33-78.55a2.74 2.74 0 0 0-2.73 2.73v70.5a2.74 2.74 0 0 0 2.73 2.73h48.33a2.74 2.74 0 0 0 2.73-2.73v-59.82H303V172.4h-37.61zm40.2 10.83h9.5l-9.5-9.37z"/><path class="cls-7" d="M275.12 180h2.66a.7.7 0 0 1 .71.71v3.9a.71.71 0 0 0 .71.71h3.91a.7.7 0 0 1 .7.71v2.66a.71.71 0 0 1-.7.71h-3.91a.71.71 0 0 0-.71.7v3.9a.71.71 0 0 1-.71.71h-2.66a.71.71 0 0 1-.71-.71v-3.9a.71.71 0 0 0-.7-.7h-3.9a.71.71 0 0 1-.71-.71V186a.71.71 0 0 1 .71-.71h3.9a.71.71 0 0 0 .7-.71v-3.9a.7.7 0 0 1 .71-.71M307.28 238.54h-13a1.29 1.29 0 1 1 0-2.59h13a1.29 1.29 0 0 1 0 2.59zm0-16.5h-13a1.29 1.29 0 1 1 0-2.59h13a1.29 1.29 0 0 1 0 2.59zm-19.42 0h-18.92a1.29 1.29 0 0 1 0-2.59h18.91a1.29 1.29 0 0 1 0 2.59zm19.42-7.28h-13a1.29 1.29 0 1 1 0-2.59h13a1.29 1.29 0 0 1 0 2.59zm-19.42 0h-18.92a1.29 1.29 0 0 1 0-2.59h18.91a1.29 1.29 0 0 1 0 2.59zm19.52-7.3h-38.44a1.29 1.29 0 0 1 0-2.59h38.44a1.29 1.29 0 0 1 0 2.59z"/></g></g></svg>