<svg xmlns="http://www.w3.org/2000/svg" viewBox="0 0 26.2 23.05"><defs><style>.cls-1{fill:#165c7d}</style></defs><title>Asset 12</title><g id="Layer_2" data-name="Layer 2"><g id="Layer_1-2" data-name="Layer 1"><path class="cls-1" d="M22 15v5.18A2.84 2.84 0 0 1 19.15 23H2.83A2.84 2.84 0 0 1 0 20.21V4a2.84 2.84 0 0 1 2.83-2.88h16.48L17 3.48H3.31a1 1 0 0 0-.95 1v3.29l-2 2 2 2v8a1 1 0 0 0 1 1h15.31a1 1 0 0 0 .95-1v-7.45L22 10z"/><path class="cls-1" d="M23.02 0L11.31 11.71 6.15 6.55 2.97 9.73l8.34 8.34L26.2 3.18 23.02 0z"/></g></g></svg>