<svg id="Layer_1" data-name="Layer 1" xmlns="http://www.w3.org/2000/svg" viewBox="0 0 378 96.35"><defs><style>.cls-1{fill:#c60c30}.cls-2,.cls-3{fill:#1f1500}.cls-3{fill-rule:evenodd}</style></defs><title>alkermes-logo</title><path class="cls-1" d="M224.25 337.63c-13.23-6.48-14.87-30.28-3.66-53.14s31-36.14 44.25-29.66c7.78 3.81 12.13 14.07 12.12 26.52 1.53-15.18-2.62-27.77-12.11-32.42-14.81-7.26-37 7.6-49.53 33.2s-10.71 52.22 4.1 59.48c9.36 4.59 21.67.32 32.62-9.89-9.63 7.21-20.11 9.69-27.8 5.92" transform="translate(-207 -247.09)"/><path class="cls-2" d="M241.33 297.75l12-17.4 1.91 17.4h-14m-5.24 7.66h20.18l.81 7.5-3.66.45-2.69 7.2h21.16l1.94-7.2-2.2-.45-.59-3.15-5.19-43.88h-10.61l-30.45 43.88-2.94 3.15-2.31.45-2.84 7.2h15.6l1.64-7.2-3.1-.45z" transform="translate(-207 -247.09)"/><path class="cls-2" d="M82.48 23.29l-3.09-.45 2.01-7.2 19.11-.45-4.24 11.25-11.42 36.23-.61 3.15 3.09.45-2.01 7.2H66.34l3.88-10.8L81.8 26.44l.68-3.15"/><path class="cls-2" d="M317.93 301.35h-1.72L310 320.56h-14.91l3.88-10.8 11.58-36.23.69-3.15-3.09-.45 2-7.2 19.11-.45-4.26 11.25-7.86 24.9h1.65a31.71 31.71 0 0 0 6.54-4.35c3-2.63 5.57-5 6.07-9.08.2-1.65.23-3.75-.65-5.1l14.46-.45a4.91 4.91 0 0 1 .28 2.63c-.81 6.6-9.38 12.83-14.76 16.35l6.92 14.48 2.65.45-2 7.2H325l-7-19.21" transform="translate(-207 -247.09)"/><path class="cls-2" d="M357.42 299.33c1-3.75 5-12.23 9.68-12.23 2.33 0 3.29 1.95 3 4.13a9 9 0 0 1-4.62 6.45c-2.51 1.5-5.37 1.58-8.08 1.65m24 8.33c-5.66 2.7-12.87 5.25-18.87 5.25-4.13 0-7.34-2-6.78-6.53 10.32.3 26.36-6.3 27.83-18.3a7.31 7.31 0 0 0-2.84-6.83c-2.12-1.8-4.74-2.25-7.74-2.25-7.58 0-15.21 3.53-21 9.15-5.28 5.1-10 12.75-10.83 19.8-1.17 9.53 7.19 13.5 15.45 13.5 7.35 0 14.79-1.87 21.93-4.5zM401.93 297.31h.9c3.51-7.2 12.8-18.08 21.2-18.08a4.68 4.68 0 0 1 3.19.9l-6.58 13.28a5.05 5.05 0 0 0-3.58-1.43c-6.3 0-13.58 9.15-17 14.1l-4.78 14.48h-14.89l4.22-11.78 6.06-19.43.37-1.8-3-.45 1.86-7.2 18.66-.45-6.62 17.85M439.67 297.31h.9a49.58 49.58 0 0 1 7.88-11c3.26-3.3 9.15-7.28 13.65-7.28 4.35 0 6.45 3.08 5.93 7.28a25.2 25.2 0 0 1-1.45 5.1l-2.08 5.93h.9a51.13 51.13 0 0 1 8.22-11.34c3.41-3.37 9-7 13.68-7 4.43 0 6.43 3.83 5.93 8a28.13 28.13 0 0 1-1.2 4.88l-5.73 17.93-.61 3.15 3.1.45-1.94 7.2h-18.08l3.8-10.8 4.52-13.58c1.21-3.75 1.19-4.8-.24-4.8-3.23 0-11.2 10.5-13.42 13.35l-.71.9-4.83 14.93h-14l3.72-10.8 4.52-13.58c1.55-4.65.52-4.8-.16-4.8-3.22 0-11.27 10.5-13.42 13.35l-.71.9-4.83 14.93H419l3.87-10.8 6-19.06.76-3.15-3.09-.45 2-7.2 17.68-.45-6.62 17.85M507.46 299.33c1-3.75 5-12.23 9.68-12.23 2.33 0 3.29 1.95 3 4.13a9 9 0 0 1-4.62 6.45c-2.51 1.5-5.37 1.58-8.08 1.65m24 8.33c-5.66 2.7-12.87 5.25-18.88 5.25-4.13 0-7.34-2-6.78-6.53 10.32.3 26.36-6.3 27.83-18.3a7.31 7.31 0 0 0-2.84-6.83c-2.11-1.8-4.77-2.25-7.77-2.25-7.58 0-15.21 3.53-21 9.15-5.28 5.1-10 12.75-10.84 19.8-1.17 9.53 7.19 13.5 15.45 13.5 7.35 0 14.78-1.87 21.94-4.5zM563.28 287.11a8.37 8.37 0 0 0-3.57-.9c-2.1 0-4.78 1.05-5.08 3.45-.34 2.78 2.4 4.88 4.1 6.38 3.44 3.15 7.82 6.53 7.14 12.08-.5 4.05-3.54 8.1-7.19 10.28-3.89 2.32-8.93 3.08-13.21 3.08a49.31 49.31 0 0 1-15.3-2.48l4-10.88 7.07.45-.81 4.13a11.74 11.74 0 0 0 6 1.57c2.78 0 5.19-1.35 5.56-4.35.33-2.7-2.07-4.5-3.68-6.07-3.28-3.23-7.5-6.75-6.84-12.08.53-4.27 3.54-8 7.47-10.13 4.08-2.1 8.65-2.63 13-2.63a53.82 53.82 0 0 1 11.57 1.13l-3.92 11.18-7.07-.45.76-3.75" transform="translate(-207 -247.09)"/><path class="cls-3" d="M580.49 279.56a4.56 4.56 0 1 0 4.51 4.54 4.54 4.54 0 0 0-4.51-4.54m0 .92a3.64 3.64 0 1 1-3.47 3.64 3.54 3.54 0 0 1 3.47-3.64zm-.8 4.19h.48a.84.84 0 0 1 1 .77 3.91 3.91 0 0 0 .31 1.31h1.1a4.34 4.34 0 0 1-.27-1.25 1.19 1.19 0 0 0-.82-1.23 1.22 1.22 0 0 0 1-1.17 1.3 1.3 0 0 0-.49-1.1 2.83 2.83 0 0 0-1.73-.4 9.18 9.18 0 0 0-1.62.14v5.06h1.06v-2.08zm0-2.28a4.63 4.63 0 0 1 .58 0 .84.84 0 0 1 1 .74c0 .53-.48.73-1.12.73h-.5v-1.44z" transform="translate(-207 -247.09)"/></svg>