<svg xmlns="http://www.w3.org/2000/svg" viewBox="0 0 467.12 127.18"><defs><style>.cls-1{isolation:isolate}.cls-2{fill:#00567b}.cls-3{fill:#870052}.cls-4{fill:#62ba46}.cls-5{fill:#7acfe3}.cls-10,.cls-11,.cls-12,.cls-6{fill:#fff}.cls-7,.cls-9{fill:#231f20}.cls-8{fill:#a0aab2}.cls-9{stroke:#231f20;stroke-width:.39px}.cls-10,.cls-11,.cls-12,.cls-14,.cls-9{stroke-miterlimit:10}.cls-10,.cls-11,.cls-12,.cls-14{stroke:#a0aab2}.cls-10,.cls-11{stroke-width:.33px}.cls-13{mix-blend-mode:multiply}.cls-14{fill:none}</style></defs><title>Asset 1</title><g class="cls-1"><g id="Layer_2" data-name="Layer 2"><g id="Layer_1-2" data-name="Layer 1"><path class="cls-2" d="M402.6 103.03h62.96v24.15H402.6z"/><path class="cls-3" d="M339.63 103.03h62.96v24.15h-62.96z"/><path class="cls-4" d="M276.67 103.03h62.96v24.15h-62.96z"/><path class="cls-5" d="M213.71 103.03h62.96v24.15h-62.96z"/><path class="cls-6" d="M410.49 111.79l-1.76.49-.36-1.39 2.63-.84h1.19v9.82h-1.7zM413.92 115c0-2.79 1.7-5 4.26-5s4.24 2.23 4.24 5c0 2.78-1.7 5-4.27 5s-4.23-2.19-4.23-5zm6.73 0c0-1.92-1-3.5-2.5-3.5s-2.46 1.55-2.46 3.47c0 1.92 1 3.49 2.49 3.49s2.47-1.53 2.47-3.46zM424.79 119c-.74-.74-1.19-1.76-1.19-3.72 0-3 1.43-5.31 4.18-5.31a4.47 4.47 0 0 1 3 1.09l-.92 1.34a3.16 3.16 0 0 0-2.12-.87c-1.7 0-2.31 1.77-2.34 3.11a3 3 0 0 1 2.34-1 3.09 3.09 0 0 1 3.4 3.07 3.39 3.39 0 0 1-3.62 3.32 3.65 3.65 0 0 1-2.73-1.03zm4.62-2.22a1.77 1.77 0 0 0-2-1.7 1.8 1.8 0 0 0-2 1.71 1.82 1.82 0 0 0 2 1.74 1.76 1.76 0 0 0 2-1.74zM437.28 117.69h-4.92l-.32-1.23 5.42-6.41h1.46v6.23h1.39v1.41h-1.39v2.18h-1.64zm0-1.41v-3.86l-3.21 3.86zM443.61 114H445v.9a2.1 2.1 0 0 1 1.79-1 1.87 1.87 0 0 1 1.77 1 2.35 2.35 0 0 1 2-1 2 2 0 0 1 2.07 2.25v3.76h-1.35v-3.34c0-.94-.44-1.44-1.2-1.44s-1.26.51-1.26 1.46v3.32h-1.35v-3.35c0-.92-.44-1.43-1.19-1.43a1.29 1.29 0 0 0-1.26 1.46v3.32h-1.36zM454 121l.5-1a3.86 3.86 0 0 0 2.1.62 1.64 1.64 0 0 0 1.86-1.8v-.45a2.49 2.49 0 0 1-2.08 1.08 2.64 2.64 0 0 1-2.67-2.76 2.65 2.65 0 0 1 2.67-2.77 2.54 2.54 0 0 1 2.07 1V114h1.35v4.69a3 3 0 0 1-.75 2.22 3.33 3.33 0 0 1-2.42.79 5.14 5.14 0 0 1-2.63-.7zm4.47-4.34a1.64 1.64 0 0 0-1.73-1.61 1.58 1.58 0 0 0-1.67 1.61 1.61 1.61 0 0 0 1.67 1.62 1.65 1.65 0 0 0 1.71-1.64zM349.09 117.21a2.46 2.46 0 0 1 1.76-2.36 2.36 2.36 0 0 1-1.42-2.18c0-1.5 1.43-2.64 3.38-2.64s3.39 1.13 3.39 2.64a2.36 2.36 0 0 1-1.42 2.18 2.49 2.49 0 0 1 1.75 2.34c0 1.76-1.59 2.83-3.72 2.83s-3.72-1.12-3.72-2.81zm5.75-.09c0-.89-.87-1.47-2-1.47s-2 .58-2 1.47c0 .79.75 1.46 2 1.46s2-.66 2-1.46zm-.29-4.31c0-.75-.69-1.36-1.74-1.36s-1.74.61-1.74 1.36a1.77 1.77 0 0 0 3.48 0zM357.47 117.21a2.45 2.45 0 0 1 1.75-2.36 2.36 2.36 0 0 1-1.42-2.18c0-1.5 1.44-2.64 3.39-2.64s3.38 1.13 3.38 2.64a2.34 2.34 0 0 1-1.42 2.18 2.48 2.48 0 0 1 1.76 2.34c0 1.76-1.59 2.83-3.72 2.83s-3.72-1.12-3.72-2.81zm5.75-.09c0-.89-.88-1.47-2-1.47s-2 .58-2 1.47c0 .79.75 1.46 2 1.46s2-.66 2-1.46zm-.29-4.31c0-.75-.7-1.36-1.74-1.36s-1.74.61-1.74 1.36a1.77 1.77 0 0 0 3.48 0zM365.79 118.52l3.36-2.85c1.32-1.15 1.82-1.76 1.82-2.64a1.47 1.47 0 0 0-1.57-1.52c-.89 0-1.51.49-2.24 1.47l-1.23-1a4 4 0 0 1 3.59-2 2.92 2.92 0 0 1 3.22 2.91c0 1.55-.81 2.37-2.53 3.78l-2 1.67h4.64v1.5h-7zM377 114h1.36v.9a2.1 2.1 0 0 1 1.8-1 1.86 1.86 0 0 1 1.76 1 2.35 2.35 0 0 1 2-1 2 2 0 0 1 2.07 2.25v3.76h-1.35v-3.34c0-.94-.44-1.44-1.19-1.44s-1.27.51-1.27 1.46v3.32h-1.35v-3.35c0-.92-.44-1.43-1.19-1.43a1.29 1.29 0 0 0-1.26 1.46v3.32H377zM387.33 121l.5-1a3.89 3.89 0 0 0 2.1.62 1.64 1.64 0 0 0 1.86-1.8v-.45a2.47 2.47 0 0 1-2.07 1.08 2.64 2.64 0 0 1-2.68-2.76 2.66 2.66 0 0 1 2.68-2.77 2.54 2.54 0 0 1 2.06 1V114h1.35v4.69a3 3 0 0 1-.75 2.22 3.33 3.33 0 0 1-2.42.79 5.14 5.14 0 0 1-2.63-.7zm4.47-4.34a1.64 1.64 0 0 0-1.73-1.61 1.59 1.59 0 0 0-1.67 1.61 1.61 1.61 0 0 0 1.67 1.62 1.65 1.65 0 0 0 1.73-1.64zM287 119c-.74-.74-1.19-1.76-1.19-3.72 0-3 1.42-5.31 4.18-5.31a4.43 4.43 0 0 1 3 1.09l-.92 1.34a3.12 3.12 0 0 0-2.11-.87c-1.7 0-2.32 1.77-2.34 3.11a3 3 0 0 1 2.34-1 3.09 3.09 0 0 1 3.4 3.07 3.39 3.39 0 0 1-3.63 3.32A3.64 3.64 0 0 1 287 119zm4.62-2.22a1.77 1.77 0 0 0-2-1.7 1.8 1.8 0 0 0-2 1.71 1.82 1.82 0 0 0 2 1.74 1.76 1.76 0 0 0 2.03-1.74zM295.77 119c-.74-.74-1.19-1.76-1.19-3.72 0-3 1.42-5.31 4.18-5.31a4.43 4.43 0 0 1 3 1.09l-.92 1.34a3.12 3.12 0 0 0-2.11-.87c-1.7 0-2.32 1.77-2.34 3.11a3 3 0 0 1 2.34-1 3.09 3.09 0 0 1 3.4 3.07 3.39 3.39 0 0 1-3.63 3.32 3.64 3.64 0 0 1-2.73-1.03zm4.62-2.22a1.77 1.77 0 0 0-2-1.7 1.8 1.8 0 0 0-2 1.71 1.82 1.82 0 0 0 2 1.74 1.76 1.76 0 0 0 2-1.74zM302.92 118.52l3.36-2.85c1.32-1.15 1.82-1.76 1.82-2.64a1.47 1.47 0 0 0-1.57-1.52c-.9 0-1.51.49-2.25 1.47l-1.22-1a4 4 0 0 1 3.59-2 2.92 2.92 0 0 1 3.22 2.91c0 1.55-.81 2.37-2.54 3.78l-2 1.67H310v1.5h-7.05zM314.3 114h1.36v.9a2.1 2.1 0 0 1 1.79-1 1.85 1.85 0 0 1 1.76 1 2.37 2.37 0 0 1 2-1 2 2 0 0 1 2.06 2.25v3.76h-1.35v-3.34c0-.94-.43-1.44-1.19-1.44s-1.26.51-1.26 1.46v3.32h-1.35v-3.35c0-.92-.45-1.43-1.19-1.43a1.29 1.29 0 0 0-1.26 1.46v3.32h-1.37zM324.67 121l.5-1a3.83 3.83 0 0 0 2.09.62 1.65 1.65 0 0 0 1.87-1.8v-.45a2.49 2.49 0 0 1-2.08 1.08 2.64 2.64 0 0 1-2.67-2.76 2.65 2.65 0 0 1 2.67-2.77 2.56 2.56 0 0 1 2.07 1V114h1.34v4.69a3 3 0 0 1-.74 2.22 3.34 3.34 0 0 1-2.42.79 5.11 5.11 0 0 1-2.63-.7zm4.47-4.34a1.64 1.64 0 0 0-1.73-1.61 1.58 1.58 0 0 0-1.67 1.61 1.6 1.6 0 0 0 1.67 1.62 1.65 1.65 0 0 0 1.73-1.64zM228.61 117.69h-4.91l-.32-1.23 5.42-6.41h1.46v6.23h1.39v1.41h-1.39v2.18h-1.65zm0-1.41v-3.86l-3.2 3.86zM238.26 117.69h-4.92l-.32-1.23 5.42-6.41h1.46v6.23h1.4v1.41h-1.4v2.18h-1.64zm0-1.41v-3.86l-3.21 3.86zM244.45 111.79l-1.76.49-.36-1.39 2.63-.84h1.19v9.82h-1.7zM250.84 114h1.35v.9a2.11 2.11 0 0 1 1.8-1 1.85 1.85 0 0 1 1.76 1 2.37 2.37 0 0 1 2-1 2 2 0 0 1 2.06 2.25v3.76h-1.35v-3.34c0-.94-.43-1.44-1.19-1.44s-1.26.51-1.26 1.46v3.32h-1.35v-3.35c0-.92-.45-1.43-1.19-1.43a1.29 1.29 0 0 0-1.27 1.46v3.32h-1.35zM261.2 121l.51-1a3.83 3.83 0 0 0 2.09.62 1.65 1.65 0 0 0 1.87-1.8v-.45a2.49 2.49 0 0 1-2.08 1.08 2.65 2.65 0 0 1-2.68-2.76 2.66 2.66 0 0 1 2.68-2.77 2.52 2.52 0 0 1 2.06 1V114H267v4.69a3 3 0 0 1-.74 2.22 3.34 3.34 0 0 1-2.42.79 5.15 5.15 0 0 1-2.64-.7zm4.48-4.34A1.64 1.64 0 0 0 264 115a1.58 1.58 0 0 0-1.67 1.61 1.6 1.6 0 0 0 1.67 1.62 1.65 1.65 0 0 0 1.68-1.59z"/><path class="cls-3" d="M406.43 13.13a3.14 3.14 0 0 1-3.2 3.17 3.15 3.15 0 1 1 0-6.3 3.13 3.13 0 0 1 3.2 3.13zm-5.63 0a2.43 2.43 0 0 0 2.45 2.5 2.4 2.4 0 0 0 2.38-2.48 2.42 2.42 0 1 0-4.83 0zm1.93 1.64H402v-3.13a6.09 6.09 0 0 1 1.2-.09 1.91 1.91 0 0 1 1.09.23.86.86 0 0 1 .3.68.81.81 0 0 1-.65.73.92.92 0 0 1 .58.76 2.41 2.41 0 0 0 .22.78H404a3 3 0 0 1-.25-.76c-.05-.34-.24-.5-.64-.5h-.35zm0-1.77h.34c.41 0 .73-.14.73-.46s-.21-.48-.67-.48a1.68 1.68 0 0 0-.4 0z"/><path class="cls-7" d="M217.56 65.08c-2.42 0-3.92-1.6-3.92-4.19 0-4.34 3.82-4.5 6.6-4.62h1v-1c0-2.17-.75-3.05-2.59-3.05-1.58 0-2.52.82-2.52 2.19v.16H214v-.17c.12-2.42 1.84-3.81 4.7-3.81 1.09 0 4.41 0 4.41 3.79v6.87a29 29 0 0 0 .16 3.41v.18h-2V63.4a4.61 4.61 0 0 1-3.76 1.68m3.14-7.22c-2.23 0-5 .1-5 3 0 1.28.6 2.65 2.3 2.65a3.34 3.34 0 0 0 3.21-3.3v-2.37h-.51M226.37 64.81v-14h1.95v1.51a4.4 4.4 0 0 1 3.68-1.76h.16v2h-.56a3.05 3.05 0 0 0-3.24 3.34v9zM234.32 50.83h2v14h-2zm-.19-4.73h2.33v2.39h-2.33zM239.84 69.41V50.83h1.89v1.36a4.17 4.17 0 0 1 3.19-1.63c4.46 0 4.46 4 4.46 5.68v3.06c0 3.94-1.54 5.78-4.86 5.78a3.34 3.34 0 0 1-2.73-1.5v5.83zm4.68-17.22c-1.06 0-2.73 1.19-2.73 4.4V59c0 3.06 1.37 4.43 2.73 4.43 2.45 0 2.91-2 2.91-5.65s-.46-5.62-2.91-5.62M252.33 50.83h1.95v14h-1.95zm-.19-4.73h2.33v2.39h-2.33zM257.84 69.41V50.83h1.9v1.36a4.16 4.16 0 0 1 3.19-1.63c4.46 0 4.46 4 4.46 5.68v3.06c0 3.94-1.55 5.78-4.87 5.78a3.34 3.34 0 0 1-2.73-1.5v5.83zm4.68-17.22c-1.06 0-2.73 1.19-2.73 4.4V59c0 3.06 1.37 4.43 2.73 4.43 2.45 0 2.92-2 2.92-5.65s-.47-5.62-2.92-5.62M269.9 64.81v-14h2v1.51a4.39 4.39 0 0 1 3.65-1.78h.16v2H275.13a3.05 3.05 0 0 0-3.23 3.34v9zM280.61 65.08c-2.42 0-3.93-1.6-3.93-4.19 0-4.34 3.82-4.5 6.6-4.62h1v-1c0-2.17-.75-3.05-2.59-3.05-1.57 0-2.51.82-2.51 2.19v.16h-2.07v-.17c.13-2.42 1.84-3.81 4.71-3.81 1.09 0 4.4 0 4.4 3.79v6.87a29 29 0 0 0 .16 3.41v.18h-2V63.4a4.6 4.6 0 0 1-3.75 1.68m3.14-7.22c-2.23 0-5 .1-5 3 0 1.28.6 2.65 2.3 2.65a3.34 3.34 0 0 0 3.21-3.3v-2.37h-.5M288.42 64.81v-1.53l5.57-10.82h-5.25v-1.63h7.33v1.56l-5.44 10.8h5.57v1.62h-7.78zM302.83 65.08c-3.19 0-4.87-2-4.87-5.78v-2.95c0-3.78 1.68-5.79 4.87-5.79s4.86 2 4.86 5.79v2.95c0 3.78-1.68 5.78-4.86 5.78m0-12.89c-2.46 0-2.92 2-2.92 5.62s.46 5.65 2.92 5.65 2.92-2 2.92-5.65-.47-5.62-2.92-5.62M310.85 46.1h1.95v18.71h-1.95zM320.83 65.08c-3.23 0-4.87-1.76-4.87-5.24v-3.35c0-3.93 1.64-5.93 4.87-5.93 4.87 0 4.87 3.53 4.87 7.6v.16h-7.79v.9c0 1.93.51 4.24 2.92 4.24a2.79 2.79 0 0 0 2.08-.75 3 3 0 0 0 .76-2.22v-.17h2v.18c-.18 3.08-1.77 4.58-4.87 4.58m2.92-8.38c0-2.93-.51-4.51-2.92-4.51s-2.9 1.58-2.92 4.51zM334.86 46.1h1.95v18.71h-1.95zM343.62 65.08c-2.42 0-3.92-1.6-3.92-4.19 0-4.34 3.81-4.5 6.6-4.62h1v-1c0-2.17-.75-3.05-2.6-3.05-1.57 0-2.51.82-2.51 2.19v.16h-2.09v-.17c.13-2.42 1.84-3.81 4.71-3.81 1.09 0 4.41 0 4.41 3.79v6.87a29 29 0 0 0 .16 3.41v.18h-2V63.4a4.63 4.63 0 0 1-3.76 1.68m3.14-7.22c-2.23 0-5 .1-5 3 0 1.28.6 2.65 2.29 2.65a3.34 3.34 0 0 0 3.22-3.3v-2.37h-.51M356.19 65.08c-2.46 0-3.76-1.53-3.76-4.43v-9.82h1.95v9.55a3.47 3.47 0 0 0 .76 2.57 1.82 1.82 0 0 0 1.35.51 2.91 2.91 0 0 0 2.81-2.84v-9.79h1.95v14h-1.74v-1.31a4.1 4.1 0 0 1-3.32 1.56M364.43 64.81v-14h1.95v1.51a4.4 4.4 0 0 1 3.62-1.76h.17v2H369.6a3.05 3.05 0 0 0-3.24 3.34v9zM376.36 65.08c-3.19 0-4.87-2-4.87-5.78v-2.95c0-3.78 1.68-5.79 4.87-5.79s4.87 2 4.87 5.79v2.95c0 3.78-1.69 5.78-4.87 5.78m0-12.89c-2.46 0-2.92 2-2.92 5.62s.46 5.65 2.92 5.65 2.92-2 2.92-5.65-.47-5.62-2.92-5.62M390.5 64.81l-2.9-5.73-3.03 5.73h-2.19l4.09-7.43-3.46-6.55h2.32l2.39 4.94 2.6-4.94h2.16l-3.66 6.47 4.03 7.51h-2.35zM394.9 50.83h2v14h-2zm-.19-4.73H397v2.39h-2.33zM400.9 46.1h1.95v18.71h-1.95zM214.86 81.74v.93c0 1.68.36 3.91 2.18 3.91 1.44 0 2.15-1.15 2.13-2.78h1.21c-.13 2.92-1.4 3.93-3.34 3.93-1.66 0-3.33-.84-3.33-4.5v-3c0-3.49 1.17-5.1 3.33-5.1 3.34 0 3.34 3 3.34 6.59zm4.37-1.15c0-2.68-.35-4.29-2.19-4.29s-2.18 1.61-2.18 4.29zM223.79 81.05l-2.4-5.66h1.39l1.76 4.55 1.91-4.55h1.27l-2.53 5.58 2.8 6.52h-1.4l-2.13-5.25-2.22 5.25h-1.29l2.84-6.44zM229 72.9l1.15-.62v3.11h2v1.15h-2v7.76c0 1.61.13 2 1.05 2a4.37 4.37 0 0 0 .9-.07v1.25a9.51 9.51 0 0 1-1.09.07c-1.55 0-2-.86-2-2.35zM234 81.74v.93c0 1.68.37 3.91 2.19 3.91 1.43 0 2.14-1.15 2.12-2.78h1.21c-.13 2.92-1.4 3.93-3.33 3.93-1.67 0-3.34-.84-3.34-4.5v-3c0-3.49 1.17-5.1 3.34-5.1 3.33 0 3.33 3 3.33 6.59zm4.37-1.15c0-2.68-.34-4.29-2.18-4.29S234 77.91 234 80.59zM242.16 87.49H241v-12.1h1.15v1.49a2.78 2.78 0 0 1 2.34-1.73c2.4 0 2.65 2.23 2.65 3.81v8.53H246V79c0-1.41-.45-2.73-1.79-2.73-1 0-2.09.89-2.09 3.6zM254.05 86a2.66 2.66 0 0 1-2.46 1.75c-2.79 0-3-3.48-3-6.3 0-2.33 0-6.28 3-6.28a2.8 2.8 0 0 1 2.34 1.44v-4.85h1.15v13.33a18.22 18.22 0 0 0 .12 2.4h-1.1zm-.05-3.47v-2.16c0-.71 0-4.07-2.17-4.07s-2.07 2.35-2.07 5.18c0 4.5.87 5.1 2.11 5.1 1.09 0 2.13-1.1 2.13-4M257.82 81.74v.93c0 1.68.36 3.91 2.19 3.91 1.43 0 2.14-1.15 2.12-2.78h1.21c-.13 2.92-1.4 3.93-3.33 3.93-1.67 0-3.34-.84-3.34-4.5v-3c0-3.49 1.17-5.1 3.34-5.1 3.33 0 3.33 3 3.33 6.59zm4.37-1.15c0-2.68-.34-4.29-2.18-4.29s-2.19 1.61-2.19 4.29zM270 86a2.65 2.65 0 0 1-2.45 1.75c-2.8 0-2.95-3.48-2.95-6.3 0-2.33 0-6.28 3-6.28a2.82 2.82 0 0 1 2.34 1.44v-4.85H271v13.33a18.83 18.83 0 0 0 .11 2.4H270zm-.06-3.43v-2.2c0-.71 0-4.07-2.16-4.07s-2.07 2.35-2.07 5.18c0 4.5.86 5.1 2.11 5.1 1.09 0 2.12-1.1 2.12-4M272.38 80.42h3.87v1.37h-3.87zM278.82 77a2.9 2.9 0 0 1 2.67-1.87v1.46c-1.63-.17-2.71 1.06-2.71 3.09v7.79h-1.15V75.39h1.15zM283.27 81.74v.93c0 1.68.36 3.91 2.18 3.91 1.44 0 2.15-1.15 2.13-2.78h1.21c-.13 2.92-1.4 3.93-3.34 3.93-1.66 0-3.33-.84-3.33-4.5v-3c0-3.49 1.17-5.1 3.33-5.1 3.34 0 3.34 3 3.34 6.59zm4.37-1.15c0-2.68-.35-4.29-2.19-4.29s-2.18 1.61-2.18 4.29zM290.7 71.76h1.15v15.73h-1.15zM294.92 81.74v.93c0 1.68.37 3.91 2.19 3.91 1.43 0 2.14-1.15 2.12-2.78h1.21c-.13 2.92-1.4 3.93-3.33 3.93-1.67 0-3.34-.84-3.34-4.5v-3c0-3.49 1.17-5.1 3.34-5.1 3.33 0 3.33 3 3.33 6.59zm4.37-1.15c0-2.68-.34-4.29-2.18-4.29s-2.19 1.61-2.19 4.29zM307 86a3 3 0 0 1-2.74 1.73c-1.73 0-2.67-1.46-2.67-3.57 0-4.24 3.41-3.81 5.37-4v-1c0-1.77-.42-2.85-2-2.85a1.84 1.84 0 0 0-1.89 2.09h-1.23a3 3 0 0 1 3.16-3.25c1 0 3 .12 3 3.21v6.09c0 .86 0 1.63.11 3H307zm-.08-4.69c-1.65.07-4.14-.17-4.14 2.78 0 1.36.55 2.49 1.74 2.49s2.4-1.49 2.4-3.07zM312.49 87.73c-2.08 0-2.91-1.27-2.89-3.83h1.17c0 1.65.31 2.75 1.78 2.75 1.11 0 1.65-.79 1.65-2.13 0-3.16-4.35-2.35-4.35-6.35 0-2.23 1.23-3 2.91-3 1.92 0 2.53 1.65 2.53 3.5h-1.13c-.06-1.53-.38-2.35-1.68-2.35a1.56 1.56 0 0 0-1.48 1.73c0 3 4.35 2.2 4.35 6.25 0 2.28-1.05 3.43-2.86 3.43M317.73 81.74v.93c0 1.68.36 3.91 2.18 3.91 1.44 0 2.15-1.15 2.13-2.78h1.21c-.14 2.92-1.4 3.93-3.34 3.93-1.67 0-3.33-.84-3.33-4.5v-3c0-3.49 1.17-5.1 3.33-5.1 3.34 0 3.34 3 3.34 6.59zm4.37-1.15c0-2.68-.35-4.29-2.19-4.29s-2.18 1.61-2.18 4.29zM329.25 71.76h1.42v1.82h-1.42zm.13 3.63h1.15v12.1h-1.15zM333.85 87.49h-1.15v-12.1h1.15v1.49a2.78 2.78 0 0 1 2.34-1.73c2.4 0 2.65 2.23 2.65 3.81v8.53h-1.15V79c0-1.41-.44-2.73-1.78-2.73-1 0-2.09.89-2.09 3.6zM342.26 75.39v14.33c0 .88-.23 2.44-1.88 2.44a2.93 2.93 0 0 1-.84-.09v-1.2c1.42.12 1.57-.36 1.57-1.94V75.39zM341 71.76h1.41v1.82H341zM345.25 81.74v.93c0 1.68.36 3.91 2.18 3.91 1.44 0 2.15-1.15 2.13-2.78h1.21c-.14 2.92-1.4 3.93-3.34 3.93-1.66 0-3.33-.84-3.33-4.5v-3c0-3.49 1.17-5.1 3.33-5.1 3.34 0 3.34 3 3.34 6.59zm4.37-1.15c0-2.68-.35-4.29-2.19-4.29s-2.18 1.61-2.18 4.29zM357.13 78.86c.06-1.5-.38-2.56-1.7-2.56a1.65 1.65 0 0 0-1.55 1.39 20 20 0 0 0-.27 3.81c0 2.18 0 5.08 1.78 5.08 1.51 0 1.71-1.2 1.76-2.66h1.15c.1 3.26-1.74 3.81-2.64 3.81-3.28 0-3.28-3.24-3.28-6.23a19.83 19.83 0 0 1 .29-4 2.84 2.84 0 0 1 2.91-2.35c1.67 0 2.8 1.17 2.7 3.71zM359.89 72.9l1.15-.62v3.11H363v1.15h-2v7.76c0 1.61.13 2 1 2a4.43 4.43 0 0 0 .9-.07v1.25a9.51 9.51 0 0 1-1.09.07c-1.55 0-2-.86-2-2.35zM369 86a3 3 0 0 1-2.74 1.73c-1.72 0-2.66-1.46-2.66-3.57 0-4.24 3.41-3.81 5.37-4v-1c0-1.77-.43-2.85-2-2.85a1.84 1.84 0 0 0-1.9 2.09h-1.22a3 3 0 0 1 3.15-3.25c1 0 3 .12 3 3.21v6.09c0 .86 0 1.63.11 3H369zm-.07-4.69c-1.65.07-4.14-.17-4.14 2.78 0 1.36.55 2.49 1.74 2.49s2.4-1.49 2.4-3.07zM371.85 87.49a9.73 9.73 0 0 0 .11-1.2V71.76h1.15v5a2.58 2.58 0 0 1 2.45-1.65c3.15 0 2.9 4.12 2.9 6.28 0 2.66-.17 6.3-3 6.3a2.52 2.52 0 0 1-2.44-1.7v1.46zm3.31-.91c2.13 0 2.19-2.28 2.19-5.1s-.06-5.18-2.19-5.18c-1.86 0-2.09 3.14-2.09 5s0 5.32 2.09 5.32M380.26 71.76h1.15v15.73h-1.15zM384.48 81.74v.93c0 1.68.36 3.91 2.18 3.91 1.44 0 2.15-1.15 2.13-2.78H390c-.14 2.92-1.4 3.93-3.34 3.93-1.67 0-3.33-.84-3.33-4.5v-3c0-3.49 1.16-5.1 3.33-5.1 3.34 0 3.34 3 3.34 6.59zm4.37-1.15c0-2.68-.35-4.29-2.19-4.29s-2.18 1.61-2.18 4.29zM397.79 87.73c-2.09 0-2.91-1.27-2.89-3.83h1.17c0 1.65.31 2.75 1.78 2.75 1.11 0 1.65-.79 1.65-2.13 0-3.16-4.35-2.35-4.35-6.35 0-2.23 1.23-3 2.91-3 1.92 0 2.53 1.65 2.53 3.5h-1.13c0-1.53-.38-2.35-1.68-2.35a1.56 1.56 0 0 0-1.48 1.75c0 3 4.35 2.2 4.35 6.25 0 2.28-1 3.43-2.86 3.43M408.22 75.39v12.1h-1v-1.34a2.78 2.78 0 0 1-2.43 1.58c-2 0-2.55-1.82-2.55-3.79v-8.55h1.15v8.31c0 .34-.06 2.88 1.61 2.88s2.11-1.82 2.11-2.66v-8.53zM412.65 87.73c-2.09 0-2.92-1.27-2.9-3.83h1.17c0 1.65.31 2.75 1.78 2.75 1.12 0 1.65-.79 1.65-2.13 0-3.16-4.35-2.35-4.35-6.35 0-2.23 1.23-3 2.91-3 1.92 0 2.54 1.65 2.54 3.5h-1.14c-.05-1.53-.38-2.35-1.68-2.35a1.56 1.56 0 0 0-1.48 1.75c0 3 4.35 2.2 4.35 6.25 0 2.28-1.05 3.43-2.85 3.43M418.13 76.85a2.78 2.78 0 0 1 2.33-1.68c3 0 3.05 3.31 3.05 4.89v2.71c0 3.13-.86 5-3.33 5-.71 0-1.42-.43-2-1.58v5.95H417V75.39h1.11zm0 5.66c0 2.75 1 4.07 2.05 4.07 1.89 0 2.18-2 2.18-5.15s-.29-5.13-2.18-5.13c-.75 0-2.05 1.06-2.05 4zM425.83 81.74v.93c0 1.68.36 3.91 2.19 3.91 1.43 0 2.14-1.15 2.12-2.78h1.21c-.13 2.92-1.4 3.93-3.33 3.93-1.67 0-3.34-.84-3.34-4.5v-3c0-3.49 1.17-5.1 3.34-5.1 3.33 0 3.33 3 3.33 6.59zm4.37-1.15c0-2.68-.34-4.29-2.18-4.29s-2.19 1.61-2.19 4.29zM434 87.49h-1.15v-12.1H434v1.49a2.77 2.77 0 0 1 2.34-1.73c2.39 0 2.64 2.23 2.64 3.81v8.53h-1.08V79c0-1.41-.44-2.73-1.78-2.73-1 0-2.09.89-2.09 3.6zM443.4 87.73c-2.09 0-2.91-1.27-2.89-3.83h1.17c0 1.65.31 2.75 1.78 2.75 1.11 0 1.65-.79 1.65-2.13 0-3.16-4.35-2.35-4.35-6.35 0-2.23 1.23-3 2.91-3 1.92 0 2.53 1.65 2.53 3.5h-1.13c-.06-1.53-.38-2.35-1.68-2.35a1.56 1.56 0 0 0-1.48 1.75c0 3 4.35 2.2 4.35 6.25 0 2.28-1.06 3.43-2.86 3.43M447.98 71.76h1.42v1.82h-1.42zM448.12 75.39h1.15v12.1h-1.15zM451.18 82.75v-2.61c0-3.14 1.08-5 3.34-5s3.33 1.85 3.33 5v2.61c0 3.14-1.07 5-3.33 5s-3.34-1.84-3.34-5m1.15-1.32c0 3.16.29 5.15 2.19 5.15s2.18-2 2.18-5.15-.28-5.13-2.18-5.13-2.19 2-2.19 5.13M460.54 87.49h-1.15v-12.1h1.15v1.49a2.78 2.78 0 0 1 2.34-1.73c2.4 0 2.65 2.23 2.65 3.81v8.53h-1.15V79c0-1.41-.44-2.73-1.79-2.73-1 0-2.08.89-2.08 3.6z"/><path class="cls-3" d="M234.32 38.41V37.83v-.18-.3a5.54 5.54 0 0 0-.15-1.21 10.33 10.33 0 0 0-.63-1.69l-2.3-4.91H219.16L217 34.3c-.2.45-.41 1-.63 1.51a4 4 0 0 0-.31 1.54 1.33 1.33 0 0 0 0 .32.63.63 0 0 0 0 .11l.07.1v.53h-4.83v-.59l.11-.1a7 7 0 0 0 .83-1.2c.35-.59.74-1.35 1.16-2.25L225 10.14h2.09l10.89 23.2c.24.53.5 1.06.77 1.56s.52 1 .76 1.35.44.73.62 1 .32.45.35.49l.09.1v.57zm-12.48-11.25H230.16l-5-10.67-4.9 10.73zM260.42 38.41l-.05-.31a2.69 2.69 0 0 0-.35-.83 9.07 9.07 0 0 0-.73-1.14l-6.9-9.21H249.54l-.73-.07v3.8c0 1.06 0 2 .05 2.78s.14 1.57.14 2.09a13 13 0 0 0 .17 1.41c.07.37.15.69.22.94v.54h-5.54v-.54a7.83 7.83 0 0 0 .22-.94 13 13 0 0 0 .17-1.41q.08-.87.12-2c0-.79.05-1.73.05-2.79V18.44c0-1.05 0-2-.05-2.77s-.07-1.48-.12-2.05a13.22 13.22 0 0 0-.17-1.42 7.19 7.19 0 0 0-.22-.95v-.58l1.25.11c.25 0 .52 0 .82.05h.95a15.49 15.49 0 0 0 2-.18 26.86 26.86 0 0 1 3.43-.18 12.86 12.86 0 0 1 3.7.53 9 9 0 0 1 2.94 1.5 7.11 7.11 0 0 1 2 2.43 7.45 7.45 0 0 1 .7 3.25 8.47 8.47 0 0 1-.39 2.62 7.77 7.77 0 0 1-1.08 2.2 8.09 8.09 0 0 1-1.67 1.74 9.63 9.63 0 0 1-1.75 1.07l6.7 8.92c.34.46.66.85.95 1.18a9.65 9.65 0 0 0 .82.85 6.5 6.5 0 0 0 .73.56 2.86 2.86 0 0 0 .69.32l.26.09v.7zm-11.57-13.72l.74.1h1a7.91 7.91 0 0 0 2.59-.4 4.9 4.9 0 0 0 1.94-1.2 5.43 5.43 0 0 0 1.26-2 8.45 8.45 0 0 0 .45-2.9 8.94 8.94 0 0 0-.32-2.46 5.3 5.3 0 0 0-.93-1.82 4.28 4.28 0 0 0-1.54-1.13 5.5 5.5 0 0 0-2.2-.41 13.17 13.17 0 0 0-2.12.13c-.37.06-.67.12-.91.18zM270.33 38.41v-.54a6.41 6.41 0 0 0 .21-.94c.07-.37.13-.85.18-1.42s.09-1.25.11-2 0-1.72 0-2.78V18.44v-2.78c0-.78-.06-1.47-.11-2.05s-.11-1-.18-1.43a6.24 6.24 0 0 0-.21-.93v-.55h5.52v.55c-.07.25-.15.57-.22.94s-.12.85-.17 1.42-.09 1.27-.12 2.06-.05 1.72-.05 2.77v12.25c0 1.06 0 2 .05 2.78s.07 1.48.12 2.05.1 1 .17 1.41.15.69.22.94v.54zM288.77 39a17.63 17.63 0 0 1-2.78-.21 21 21 0 0 1-2.42-.5 20.27 20.27 0 0 1-2-.65 15.34 15.34 0 0 1-1.45-.65l-.23-.12.64-4.7H282l.08.28a4.94 4.94 0 0 0 .82 1.55 6.09 6.09 0 0 0 1.43 1.33 7.58 7.58 0 0 0 1.92.91 8.08 8.08 0 0 0 2.37.34 12 12 0 0 0 2.64-.27 5.24 5.24 0 0 0 1.56-.73 3.33 3.33 0 0 0 1-1.11 3 3 0 0 0 .35-1.42 4.15 4.15 0 0 0-.53-2 8.27 8.27 0 0 0-1.43-1.83 18.11 18.11 0 0 0-2.06-1.7c-.78-.57-1.58-1.13-2.4-1.7s-1.64-1.17-2.43-1.77a16.49 16.49 0 0 1-2.16-2 9.68 9.68 0 0 1-1.55-2.28 6.16 6.16 0 0 1-.6-2.72 5.25 5.25 0 0 1 .8-2.84 7.48 7.48 0 0 1 2.12-2.15 11.62 11.62 0 0 1 3-1.37 15.47 15.47 0 0 1 5.25-.32 18.5 18.5 0 0 1 1.93.37c.57.14 1.07.29 1.49.43l1.32.44-.21 4.12h-1.35l-.11-.25a4.73 4.73 0 0 0-.59-.91 4.57 4.57 0 0 0-1-.94 5.94 5.94 0 0 0-1.66-.73 7.84 7.84 0 0 0-4.15 0 4.12 4.12 0 0 0-1.39.7 2.86 2.86 0 0 0-.85 1.08 3.28 3.28 0 0 0-.29 1.42 3.74 3.74 0 0 0 .93 2.39 15.8 15.8 0 0 0 2.44 2.37c1 .8 2.09 1.6 3.24 2.39a38.42 38.42 0 0 1 3.31 2.54 15.76 15.76 0 0 1 2.57 2.78 5.57 5.57 0 0 1 1.06 3.23 6.35 6.35 0 0 1-.58 2.58 6.67 6.67 0 0 1-1.82 2.33 9.45 9.45 0 0 1-3.16 1.68 14.27 14.27 0 0 1-4.54.65M342.83 38.41V37.83a.69.69 0 0 0 0-.18v-.3a5.68 5.68 0 0 0-.16-1.21 11.14 11.14 0 0 0-.62-1.69l-2.31-4.91h-12.07l-2.19 4.76-.63 1.51a4.15 4.15 0 0 0-.31 1.54 1.33 1.33 0 0 0 0 .32.39.39 0 0 0 0 .11l.06.1v.53h-4.7v-.59l.1-.1a6.41 6.41 0 0 0 .84-1.2 24.1 24.1 0 0 0 1.16-2.25l11.48-24.13h2.09l10.89 23.2c.24.53.51 1.06.78 1.56s.52 1 .75 1.35.44.73.63 1l.34.49.09.1v.57zm-12.48-11.25h8.33l-5-10.67-4.88 10.67zM360.1 38.71h-1.93l-2.26-.11-2.13-.1c-.66 0-1.18-.05-1.54-.05h-.39v-.54c.07-.25.15-.57.22-.94s.13-.86.18-1.42.09-1.25.12-2 0-1.73 0-2.78V18.44v-2.8c0-.8-.07-1.49-.12-2.06a13.32 13.32 0 0 0-.19-1.45 8 8 0 0 0-.21-1v-.56l1.26.06h2.5l2-.08 2.35-.07h2.31a22.1 22.1 0 0 1 5.58.69 12.7 12.7 0 0 1 4.71 2.29 11.22 11.22 0 0 1 3.23 4.18 15.2 15.2 0 0 1 1.18 6.3 17.34 17.34 0 0 1-.62 4.8 13.19 13.19 0 0 1-1.75 3.79 11.83 11.83 0 0 1-2.69 2.82 15 15 0 0 1-3.45 1.92 18.84 18.84 0 0 1-4 1.1 27.27 27.27 0 0 1-4.38.34m-2.59-2.52l1 .07 1 .05h.82a22.37 22.37 0 0 0 2.8-.17 12.49 12.49 0 0 0 2.73-.65 10.39 10.39 0 0 0 2.47-1.29 8.17 8.17 0 0 0 2-2.12 10.48 10.48 0 0 0 1.37-3.15 17.41 17.41 0 0 0 .5-4.42 16.45 16.45 0 0 0-.71-5 9.89 9.89 0 0 0-2.08-3.65A8.73 8.73 0 0 0 366 13.6a13.14 13.14 0 0 0-4.67-.77h-1.19l-1.34.05-1.24.08-.56.04-.08 3.75V29.9c0 1.25.05 2.45.09 3.61 0 1 .08 1.86.12 2.56h.42M399.47 38.08V37.51a.56.56 0 0 0 0-.19v-.3a5.68 5.68 0 0 0-.16-1.21 10.33 10.33 0 0 0-.63-1.69l-2.3-4.9H384.3L382.18 34c-.19.45-.41 1-.63 1.51a4 4 0 0 0-.31 1.54 1.33 1.33 0 0 0 0 .32.53.53 0 0 0 0 .11l.07.1v.53h-4.83v-.61l.11-.11a6.48 6.48 0 0 0 .83-1.2c.35-.59.74-1.35 1.16-2.25l11.53-24.13h2.09L403.09 33c.24.53.5 1.05.77 1.56s.52 1 .76 1.35.44.73.62 1 .32.45.35.49l.09.1v.57zM387 26.83H395.32l-5-10.67-4.9 10.73zM323.79 10.53H300.04l-.19 3.8c.81-.22 1.76-.43 2.79-.61s2-.29 3.24-.42 2.41-.19 3.8-.2V33.48c0 .78-.07 1.47-.12 2s-.11 1.05-.17 1.42-.14.69-.21.94v.54h5.52v-.54a8.32 8.32 0 0 1-.22-.94c-.07-.37-.13-.85-.18-1.41s-.08-1.26-.11-2.05-.05-1.72-.05-2.78V13.09c1.38 0 2.66.08 3.8.2s2.33.27 3.23.42 2 .39 2.8.61z"/><path class="cls-4" d="M463.38 27.76a71.23 71.23 0 0 1-15.44 15.1c1.36.63 2.68 1.19 3.9 1.67a144.94 144.94 0 0 0 14.31-11q-1.32-3-2.77-5.8"/><path class="cls-2" d="M414.91 28.05a71.5 71.5 0 0 1 15.56-15.26c-1.36-.63-2.68-1.19-3.89-1.67a143.72 143.72 0 0 0-14.45 11.08q1.32 3 2.78 5.85"/><path class="cls-3" d="M439.4 52.1a71.27 71.27 0 0 1-15.26-15.56c-.63 1.37-1.19 2.68-1.67 3.9a142.15 142.15 0 0 0 11.09 14.45c2-.88 3.95-1.82 5.84-2.79"/><path class="cls-8" d="M430.33 28.17l.5.63a36.43 36.43 0 0 0 8.73 7.88l.64-.5a36.65 36.65 0 0 0 7.88-8.7l-.49-.64a36.79 36.79 0 0 0-8.73-7.84l-.65.5a36.65 36.65 0 0 0-7.88 8.7"/><path class="cls-5" d="M439.07 3.62a71.5 71.5 0 0 1 15.26 15.56c.63-1.36 1.19-2.68 1.67-3.89A142.57 142.57 0 0 0 444.92.84q-3 1.32-5.85 2.78M453.7 20.5A68.05 68.05 0 0 0 428.21 0l-6.71 6.64A73.31 73.31 0 0 1 438.2 14a47.24 47.24 0 0 1 13 11.2 61.96 61.96 0 0 0 2.52-4.69"/><path class="cls-4" d="M467.12 16.74L460.48 10a73.07 73.07 0 0 1-7.35 16.71 47 47 0 0 1-11.2 13c1.58.95 3.16 1.79 4.69 2.53a68.13 68.13 0 0 0 20.5-25.49"/><path class="cls-2" d="M431.79 13.42a68.05 68.05 0 0 0-20.5 25.49l6.65 6.71a72.72 72.72 0 0 1 7.34-16.7 47.1 47.1 0 0 1 11.21-13c-1.59-.94-3.17-1.78-4.7-2.52"/><path class="cls-3" d="M424.77 35.22a68.06 68.06 0 0 0 25.5 20.5l6.73-6.64a73.39 73.39 0 0 1-16.71-7.34 47.22 47.22 0 0 1-13-11.21c-.95 1.58-1.78 3.16-2.53 4.69"/><path class="cls-8" d="M.45 103.03h170.32v24.15H.45z"/><path class="cls-6" d="M64.49 119c-.74-.74-1.18-1.76-1.18-3.72 0-3 1.42-5.31 4.18-5.31a4.45 4.45 0 0 1 3 1.09l-.92 1.34a3.16 3.16 0 0 0-2.12-.87c-1.7 0-2.31 1.77-2.34 3.11a3.05 3.05 0 0 1 2.34-1 3.09 3.09 0 0 1 3.4 3.07 3.38 3.38 0 0 1-3.64 3.29 3.66 3.66 0 0 1-2.72-1zm4.63-2.22a2 2 0 0 0-4 0 1.82 1.82 0 0 0 2 1.74 1.76 1.76 0 0 0 2-1.73zM77.1 111.63h-4.9v-1.51h6.85v1.3l-4.39 8.45h-1.93zM80 118.55l1.06-1.24a3.74 3.74 0 0 0 2.51 1.17 1.71 1.71 0 0 0 1.93-1.69c0-1-.83-1.62-2-1.62a4.25 4.25 0 0 0-1.79.43l-1-.68.28-4.78h5.84v1.53H82.4l-.15 2.27a4.29 4.29 0 0 1 1.54-.27c1.9 0 3.4 1 3.4 3.06 0 2-1.46 3.3-3.62 3.3a5 5 0 0 1-3.57-1.48zM91.76 114h1.36v.9a2.1 2.1 0 0 1 1.79-1 1.88 1.88 0 0 1 1.77 1 2.35 2.35 0 0 1 2-1 2 2 0 0 1 2.07 2.25v3.76h-1.37v-3.34c0-.94-.44-1.44-1.2-1.44s-1.26.51-1.26 1.46v3.32h-1.35v-3.35c0-.92-.44-1.43-1.19-1.43a1.29 1.29 0 0 0-1.26 1.46v3.32h-1.36zM102.13 121l.5-1a3.86 3.86 0 0 0 2.1.62 1.64 1.64 0 0 0 1.86-1.8v-.45a2.49 2.49 0 0 1-2.08 1.08 2.64 2.64 0 0 1-2.67-2.76 2.65 2.65 0 0 1 2.67-2.77 2.54 2.54 0 0 1 2.07 1V114h1.35v4.69a3 3 0 0 1-.75 2.22 3.33 3.33 0 0 1-2.42.79 5.14 5.14 0 0 1-2.63-.7zm4.47-4.34a1.64 1.64 0 0 0-1.73-1.61 1.58 1.58 0 0 0-1.67 1.61 1.6 1.6 0 0 0 1.67 1.62 1.65 1.65 0 0 0 1.73-1.64z"/><path class="cls-7" d="M2.66 72.49A2.55 2.55 0 0 1 0 69.65c0-2.94 2.59-3.05 4.47-3.13h.66v-.67c0-1.47-.51-2.07-1.76-2.07-1.06 0-1.7.56-1.7 1.49v.11H.27v-.12c.09-1.64 1.25-2.58 3.19-2.58.74 0 3 0 3 2.57v4.65a19.54 19.54 0 0 0 .11 2.32v.12H5.2v-1a3.1 3.1 0 0 1-2.54 1.14m2.13-4.9c-1.51 0-3.4.07-3.4 2 0 .87.41 1.79 1.56 1.79a2.26 2.26 0 0 0 2.18-2.23v-1.55h-.34M8.63 72.31v-9.48H10v1a3 3 0 0 1 2.48-1.21h.11V64h-.39a2.07 2.07 0 0 0-2.2 2.24v6.07zM14 62.83h1.32v9.48H14zm-.13-3.2h1.58v1.61h-1.56zM17.76 75.43v-12.6H19v.92a2.85 2.85 0 0 1 2.16-1.1c3 0 3 2.7 3 3.85v2.07c0 2.68-1.05 3.92-3.3 3.92a2.26 2.26 0 0 1-1.85-1v4zm3.17-11.68c-.72 0-1.85.81-1.85 3v1.65c0 2.07.93 3 1.85 3 1.66 0 2-1.34 2-3.83s-.32-3.81-2-3.81M26.22 62.83h1.33v9.48h-1.33zm-.12-3.2h1.57v1.61H26.1zM30 75.43v-12.6h1.29v.92a2.82 2.82 0 0 1 2.16-1.1c3 0 3 2.7 3 3.85v2.07c0 2.68-1 3.92-3.3 3.92a2.29 2.29 0 0 1-1.85-1v4zm3.17-11.68c-.71 0-1.85.81-1.85 3v1.65c0 2.07.93 3 1.85 3 1.67 0 2-1.34 2-3.83s-.31-3.81-2-3.81M38.14 72.31v-9.48h1.32v1a3 3 0 0 1 2.47-1.21H42V64h-.39a2.07 2.07 0 0 0-2.19 2.26v6.07zM45.4 72.49a2.55 2.55 0 0 1-2.66-2.84c0-2.94 2.58-3.05 4.47-3.13h.66v-.67c0-1.47-.51-2.07-1.76-2.07-1.07 0-1.7.56-1.7 1.49v.11H43v-.12c.09-1.64 1.25-2.58 3.19-2.58.74 0 3 0 3 2.57v4.65a19.54 19.54 0 0 0 .11 2.32v.12h-1.36v-1a3.11 3.11 0 0 1-2.54 1.14m2.12-4.9c-1.51 0-3.39.07-3.39 2 0 .87.41 1.79 1.56 1.79a2.26 2.26 0 0 0 2.18-2.23v-1.55h-.35M50.69 72.31v-1.03l3.78-7.34h-3.56v-1.11h4.97v1.06l-3.69 7.32h3.78v1.1h-5.28zM60.46 72.49c-2.16 0-3.3-1.35-3.3-3.92v-2c0-2.56 1.14-3.92 3.3-3.92s3.3 1.36 3.3 3.92v2c0 2.57-1.14 3.92-3.3 3.92m0-8.74c-1.66 0-2 1.34-2 3.81s.32 3.83 2 3.83 2-1.34 2-3.83-.32-3.81-2-3.81M65.9 59.63h1.32v12.68H65.9zM72.66 72.49c-2.19 0-3.3-1.19-3.3-3.55v-2.27c0-2.67 1.11-4 3.3-4C76 62.65 76 65 76 67.8v.11h-5.31v.61c0 1.31.34 2.87 2 2.87a1.91 1.91 0 0 0 1.42-.51 2.05 2.05 0 0 0 .51-1.5v-.11H76v.11a2.92 2.92 0 0 1-3.3 3.11m2-5.68c0-2-.34-3.06-2-3.06s-2 1.08-2 3.06zM82.18 59.63h1.32v12.68h-1.32zM88.11 72.49a2.54 2.54 0 0 1-2.65-2.84c0-2.94 2.58-3.05 4.47-3.13h.66v-.67c0-1.47-.51-2.07-1.76-2.07-1.07 0-1.71.56-1.71 1.49v.11h-1.4v-.12c.08-1.64 1.25-2.58 3.19-2.58.74 0 3 0 3 2.57v4.65a19.54 19.54 0 0 0 .09 2.29v.12h-1.34v-1a3.12 3.12 0 0 1-2.55 1.14m2.13-4.9c-1.51 0-3.39.07-3.39 2 0 .87.41 1.79 1.56 1.79a2.26 2.26 0 0 0 2.18-2.23v-1.52h-.35M96.64 72.49c-1.67 0-2.55-1-2.55-3v-6.66h1.32v6.47a2.39 2.39 0 0 0 .51 1.75 1.25 1.25 0 0 0 .92.34 2 2 0 0 0 1.9-1.92v-6.64h1.32v9.48h-1.17v-.88a2.79 2.79 0 0 1-2.25 1.06M102.22 72.31v-9.48h1.33v1a3 3 0 0 1 2.45-1.18h.11V64h-.39a2.07 2.07 0 0 0-2.19 2.26v6.07zM110.31 72.49c-2.16 0-3.3-1.35-3.3-3.92v-2c0-2.56 1.14-3.92 3.3-3.92s3.3 1.36 3.3 3.92v2c0 2.57-1.14 3.92-3.3 3.92m0-8.74c-1.67 0-2 1.34-2 3.81s.31 3.83 2 3.83 2-1.34 2-3.83-.31-3.81-2-3.81M119.9 72.31l-1.97-3.88-2.06 3.88h-1.48l2.77-5.04-2.35-4.44h1.58l1.62 3.35 1.76-3.35h1.47l-2.49 4.39 2.74 5.09h-1.59zM122.88 62.83h1.32v9.48h-1.32zm-.13-3.2h1.58v1.61h-1.58zM126.95 59.63h1.32v12.68h-1.32zM.83 83.79v.63c0 1.14.24 2.65 1.48 2.65 1 0 1.45-.78 1.44-1.89h.82c-.09 2-1 2.67-2.26 2.67-1.13 0-2.26-.57-2.26-3.06v-2c0-2.37.79-3.46 2.26-3.46 2.26 0 2.26 2 2.26 4.47zm3-.78c0-1.82-.24-2.91-1.48-2.91S.83 81.19.83 83zM6.88 83.31l-1.63-3.83h.94l1.2 3.09 1.3-3.09h.85l-1.71 3.79 1.89 4.41h-.94l-1.45-3.55-1.5 3.55h-.87l1.92-4.37zM10.4 77.79l.78-.42v2.11h1.32v.78h-1.32v5.26c0 1.09.09 1.35.71 1.35a2.62 2.62 0 0 0 .61-.05v.85a5.87 5.87 0 0 1-.74 0c-1 0-1.36-.59-1.36-1.6zM13.78 83.79v.63c0 1.14.24 2.65 1.48 2.65 1 0 1.45-.78 1.44-1.89h.82c-.09 2-.95 2.67-2.26 2.67-1.13 0-2.26-.57-2.26-3.06v-2c0-2.37.79-3.46 2.26-3.46 2.26 0 2.26 2 2.26 4.47zm3-.78c0-1.82-.24-2.91-1.48-2.91s-1.52 1.09-1.52 2.9zM19.34 87.68h-.78v-8.2h.78v1A1.88 1.88 0 0 1 21 79.32c1.62 0 1.79 1.51 1.79 2.58v5.78H22V82c0-1-.3-1.85-1.21-1.85-.7 0-1.41.6-1.41 2.44zM27.39 86.64a1.79 1.79 0 0 1-1.66 1.19c-1.9 0-2-2.36-2-4.28 0-1.57 0-4.25 2-4.25a1.92 1.92 0 0 1 1.59 1V77h.77v9a12.37 12.37 0 0 0 .08 1.62h-.75zm0-2.32v-1.46c0-.49 0-2.76-1.47-2.76s-1.4 1.59-1.4 3.51c0 3 .58 3.46 1.43 3.46s1.44-.75 1.44-2.75M30 83.79v.63c0 1.14.25 2.65 1.48 2.65 1 0 1.46-.78 1.44-1.89h.82c-.09 2-.95 2.67-2.26 2.67-1.13 0-2.26-.57-2.26-3.06v-2c0-2.37.79-3.46 2.26-3.46 2.26 0 2.26 2 2.26 4.47zm3-.78c0-1.82-.23-2.91-1.48-2.91S30 81.19 30 83zM38.17 86.64a1.81 1.81 0 0 1-1.67 1.19c-1.89 0-2-2.36-2-4.28 0-1.57 0-4.25 2-4.25a1.91 1.91 0 0 1 1.58 1V77h.78v9a12.37 12.37 0 0 0 .14 1.68h-.76zm0-2.32v-1.46c0-.49 0-2.76-1.46-2.76s-1.41 1.59-1.41 3.51c0 3 .59 3.46 1.43 3.46s1.44-.75 1.44-2.75M39.82 82.89h2.62v.93h-2.62zM44.19 80.59A2 2 0 0 1 46 79.32v1c-1.1-.11-1.83.72-1.83 2.1v5.27h-.78v-8.2h.78zM47.2 83.79v.63c0 1.14.25 2.65 1.48 2.65 1 0 1.46-.78 1.44-1.89h.82c-.09 2-.94 2.67-2.26 2.67-1.13 0-2.26-.57-2.26-3.06v-2c0-2.37.79-3.46 2.26-3.46 2.26 0 2.26 2 2.26 4.47zm3-.78c0-1.82-.23-2.91-1.48-2.91S47.2 81.19 47.2 83zM52.24 77.02h.78v10.67h-.78zM55.1 83.79v.63c0 1.14.25 2.65 1.48 2.65 1 0 1.46-.78 1.44-1.89h.82c-.09 2-1 2.67-2.26 2.67-1.13 0-2.26-.57-2.26-3.06v-2c0-2.37.79-3.46 2.26-3.46 2.26 0 2.26 2 2.26 4.47zm3-.78c0-1.82-.23-2.91-1.48-2.91S55.1 81.19 55.1 83zM63.27 86.68a2 2 0 0 1-1.86 1.17c-1.17 0-1.81-1-1.81-2.42 0-2.88 2.31-2.59 3.64-2.72V82c0-1.2-.29-1.93-1.33-1.93a1.24 1.24 0 0 0-1.28 1.41h-.83a2 2 0 0 1 2.2-2.16c.66 0 2 .08 2 2.18v4.12c0 .59 0 1.11.08 2.06h-.81zm-.05-3.19c-1.12.05-2.81-.11-2.81 1.89 0 .92.38 1.69 1.19 1.69s1.62-1 1.62-2.08zM67 87.85c-1.41 0-2-.86-2-2.6h.79c0 1.12.21 1.87 1.21 1.87.76 0 1.12-.54 1.12-1.45 0-2.14-3-1.59-3-4.3a1.79 1.79 0 0 1 2-2.05c1.29 0 1.71 1.12 1.71 2.37h-.77c0-1-.26-1.59-1.14-1.59a1.05 1.05 0 0 0-1 1.18c0 2 3 1.5 3 4.24 0 1.55-.72 2.33-1.94 2.33M70.56 83.79v.63c0 1.14.25 2.65 1.48 2.65 1 0 1.46-.78 1.44-1.89h.82c-.09 2-1 2.67-2.26 2.67-1.13 0-2.26-.57-2.26-3.06v-2c0-2.37.79-3.46 2.26-3.46 2.26 0 2.26 2 2.26 4.47zm3-.78c0-1.82-.23-2.91-1.48-2.91s-1.52 1.09-1.52 2.9zM78.37 77h1v1.23h-1zm.09 2.46h.78v8.2h-.78zM81.49 87.68h-.78v-8.2h.78v1a1.9 1.9 0 0 1 1.59-1.17c1.62 0 1.79 1.51 1.79 2.58v5.78h-.78V82c0-1-.3-1.85-1.21-1.85-.7 0-1.41.6-1.41 2.44zM87.19 79.48v9.71c0 .6-.16 1.66-1.27 1.66a1.87 1.87 0 0 1-.57-.06V90c1 .08 1.06-.24 1.06-1.31v-9.21zM86.32 77h1v1.23h-1zM89.22 83.79v.63c0 1.14.24 2.65 1.48 2.65 1 0 1.45-.78 1.44-1.89H93c-.09 2-.95 2.67-2.26 2.67-1.13 0-2.26-.57-2.26-3.06v-2c0-2.37.79-3.46 2.26-3.46 2.26 0 2.26 2 2.26 4.47zm3-.78c0-1.82-.23-2.91-1.48-2.91s-1.52 1.09-1.52 2.9zM97.27 81.84c0-1-.25-1.74-1.15-1.74a1.12 1.12 0 0 0-1.05.94 13.25 13.25 0 0 0-.19 2.58c0 1.48 0 3.45 1.21 3.45 1 0 1.16-.82 1.2-1.81h.78c.06 2.21-1.19 2.59-1.8 2.59-2.22 0-2.22-2.2-2.22-4.23a13.41 13.41 0 0 1 .2-2.71 1.92 1.92 0 0 1 2-1.59c1.13 0 1.9.79 1.83 2.52zM99.14 77.79l.78-.42v2.11h1.33v.78h-1.33v5.26c0 1.09.09 1.35.72 1.35a2.62 2.62 0 0 0 .61-.05v.85a6.13 6.13 0 0 1-.74 0c-1.06 0-1.37-.59-1.37-1.6zM105.3 86.68a2 2 0 0 1-1.85 1.17c-1.17 0-1.81-1-1.81-2.42 0-2.88 2.31-2.59 3.64-2.72V82c0-1.2-.29-1.93-1.33-1.93a1.24 1.24 0 0 0-1.28 1.41h-.83a2 2 0 0 1 2.16-2.16c.66 0 2 .08 2 2.18v4.12c0 .59 0 1.11.08 2.06h-.81zm0-3.19c-1.12.05-2.81-.11-2.81 1.89 0 .92.38 1.69 1.18 1.69a2 2 0 0 0 1.58-2.07zM107.25 87.68a5.42 5.42 0 0 0 .08-.81V77h.78v3.39a1.76 1.76 0 0 1 1.67-1.12c2.13 0 2 2.79 2 4.25 0 1.81-.12 4.28-2 4.28a1.7 1.7 0 0 1-1.65-1.16v1zm2.25-.61c1.44 0 1.48-1.55 1.48-3.46s0-3.51-1.48-3.51c-1.26 0-1.42 2.13-1.42 3.36s0 3.61 1.42 3.61M112.95 77.02h.78v10.67h-.78zM115.81 83.79v.63c0 1.14.25 2.65 1.48 2.65 1 0 1.46-.78 1.44-1.89h.82c-.09 2-1 2.67-2.26 2.67-1.13 0-2.26-.57-2.26-3.06v-2c0-2.37.79-3.46 2.26-3.46 2.26 0 2.26 2 2.26 4.47zm3-.78c0-1.82-.23-2.91-1.48-2.91s-1.48 1.09-1.48 2.91zM124.84 87.85c-1.42 0-2-.86-2-2.6h.79c0 1.12.21 1.87 1.21 1.87.75 0 1.11-.54 1.11-1.45 0-2.14-2.94-1.59-2.94-4.3a1.79 1.79 0 0 1 2-2.05c1.3 0 1.72 1.12 1.72 2.37H126c0-1-.26-1.59-1.14-1.59a1.05 1.05 0 0 0-1 1.18c0 2 2.94 1.5 2.94 4.24 0 1.55-.71 2.33-1.93 2.33M131.91 79.48v8.2h-.68v-.91a1.89 1.89 0 0 1-1.64 1.08c-1.36 0-1.73-1.24-1.73-2.57v-5.8h.78v5.64c0 .22 0 1.95 1.09 1.95s1.43-1.24 1.43-1.81v-5.78zM134.91 87.85c-1.42 0-2-.86-2-2.6h.79c0 1.12.21 1.87 1.21 1.87.75 0 1.11-.54 1.11-1.45 0-2.14-2.95-1.59-2.95-4.3a1.79 1.79 0 0 1 2-2.05c1.3 0 1.71 1.12 1.71 2.37H136c0-1-.26-1.59-1.15-1.59a1.06 1.06 0 0 0-1 1.18c0 2 3 1.5 3 4.24 0 1.55-.71 2.33-1.93 2.33M138.62 80.47a1.88 1.88 0 0 1 1.58-1.14c2.06 0 2.07 2.24 2.07 3.31v1.84c0 2.13-.58 3.38-2.26 3.38-.48 0-1-.3-1.37-1.08v4h-.78v-11.3h.75zm0 3.84c0 1.86.67 2.76 1.39 2.76 1.28 0 1.48-1.35 1.48-3.5s-.2-3.47-1.48-3.47c-.51 0-1.39.71-1.39 2.74zM143.84 83.79v.63c0 1.14.25 2.65 1.49 2.65 1 0 1.45-.78 1.44-1.89h.82c-.09 2-1 2.67-2.26 2.67-1.13 0-2.26-.57-2.26-3.06v-2c0-2.37.79-3.46 2.26-3.46 2.26 0 2.26 2 2.26 4.47zm3-.78c0-1.82-.24-2.91-1.48-2.91s-1.49 1.09-1.49 2.91zM149.41 87.68h-.78v-8.2h.78v1a1.88 1.88 0 0 1 1.59-1.16c1.62 0 1.79 1.51 1.79 2.58v5.78H152V82c0-1-.3-1.85-1.21-1.85-.7 0-1.41.6-1.41 2.44zM155.76 87.85c-1.42 0-2-.86-2-2.6h.79c0 1.12.21 1.87 1.21 1.87.75 0 1.11-.54 1.11-1.45 0-2.14-2.94-1.59-2.94-4.3a1.79 1.79 0 0 1 2-2.05c1.3 0 1.72 1.12 1.72 2.37h-.77c0-1-.26-1.59-1.14-1.59a1.06 1.06 0 0 0-1 1.18c0 2 2.95 1.5 2.95 4.24 0 1.55-.71 2.33-1.93 2.33M158.86 77.02h.96v1.23h-.96zM158.95 79.48h.78v8.2h-.78zM161 84.47V82.7c0-2.13.73-3.38 2.26-3.38s2.26 1.25 2.26 3.38v1.77c0 2.13-.72 3.38-2.26 3.38S161 86.6 161 84.47m.78-.9c0 2.15.2 3.5 1.48 3.5s1.48-1.35 1.48-3.5-.19-3.47-1.48-3.47-1.48 1.35-1.48 3.47M167.37 87.68h-.78v-8.2h.78v1a1.88 1.88 0 0 1 1.63-1.16c1.63 0 1.8 1.51 1.8 2.58v5.78h-.8V82c0-1-.3-1.85-1.21-1.85-.7 0-1.42.6-1.42 2.44zM15.89 29.24v-.35a.24.24 0 0 0 0-.12 1.83 1.83 0 0 0 0-.21 3.63 3.63 0 0 0-.11-.81 6.44 6.44 0 0 0-.42-1.15l-1.56-3.31H5.7l-1.48 3.17-.42 1a2.72 2.72 0 0 0-.21 1 1.18 1.18 0 0 0 0 .22.33.33 0 0 0 0 .08l.05.06v.36H.41v-.4l.07-.07a4 4 0 0 0 .57-.71c.23-.4.5-.91.78-1.52l7.75-16.33H11l7.35 15.67c.16.36.34.71.52 1.05s.35.64.51.91.3.49.42.67a2.65 2.65 0 0 0 .24.33l.06.07v.39zm-8.42-7.59h5.62L9.72 14.4l-3.3 7.25zM33.52 29.24v-.21a1.88 1.88 0 0 0-.23-.56 5.94 5.94 0 0 0-.5-.77l-4.66-6.22H26.24l-.49-.05V25.87c0 .53.05 1 .08 1.39a8.7 8.7 0 0 0 .12.95 5.09 5.09 0 0 0 .14.63v.37h-3.74v-.37c.05-.16.1-.38.15-.63a8.7 8.7 0 0 0 .12-.95c0-.39.06-.86.08-1.38s0-1.16 0-1.88v-8.24-1.87c0-.53-.05-1-.08-1.39a8.92 8.92 0 0 0-.12-1c-.05-.26-.1-.47-.15-.64v-.39l.85.08H24.4a12.56 12.56 0 0 0 1.38-.11 16.24 16.24 0 0 1 2.3-.13 8.36 8.36 0 0 1 2.46.35 5.67 5.67 0 0 1 2 1 4.59 4.59 0 0 1 1.32 1.64 5 5 0 0 1 .47 2.19 5.92 5.92 0 0 1-.25 1.77 5.4 5.4 0 0 1-.74 1.48A5.49 5.49 0 0 1 32.2 20a6.55 6.55 0 0 1-1.17.72l4.52 6c.23.31.44.58.64.8a7.65 7.65 0 0 0 .55.57 3.89 3.89 0 0 0 .5.38 2.15 2.15 0 0 0 .46.22l.18.06v.47zM25.71 20a4.1 4.1 0 0 0 .49.06h.71a5.34 5.34 0 0 0 1.74-.27A3.3 3.3 0 0 0 30 19a3.73 3.73 0 0 0 .84-1.36 5.52 5.52 0 0 0 .31-2A5.7 5.7 0 0 0 30.9 14a3.41 3.41 0 0 0-.63-1.23 2.83 2.83 0 0 0-1-.76 3.77 3.77 0 0 0-1.49-.28 8.92 8.92 0 0 0-1.43.09l-.61.12zM40.2 29.24v-.37a4.37 4.37 0 0 0 .14-.63 8.6 8.6 0 0 0 .12-1c0-.38.06-.84.08-1.37s0-1.17 0-1.88v-8.23-1.88c0-.53 0-1-.08-1.38a8.82 8.82 0 0 0-.12-1 5.09 5.09 0 0 0-.14-.63v-.36h3.73v.36c-.05.17-.1.39-.15.64s-.08.57-.12 1 0 .85-.08 1.38 0 1.17 0 1.88V25.87c0 .53 0 1 .08 1.39s.07.7.12.95.1.46.15.63v.37zM52.65 29.63a12.62 12.62 0 0 1-1.88-.13 16.65 16.65 0 0 1-1.63-.34 14.07 14.07 0 0 1-1.34-.44c-.4-.16-.72-.31-1-.44l-.16-.08.46-3.2h1v.2a3.42 3.42 0 0 0 .57 1.06 4.13 4.13 0 0 0 1 .9 5.19 5.19 0 0 0 1.3.61 5.43 5.43 0 0 0 1.6.23 8.19 8.19 0 0 0 1.78-.18 3.4 3.4 0 0 0 1.05-.49 2.17 2.17 0 0 0 .67-.75 2 2 0 0 0 .23-1 2.83 2.83 0 0 0-.35-1.38A5.81 5.81 0 0 0 55 23a12.69 12.69 0 0 0-1.39-1.15c-.52-.38-1.07-.76-1.62-1.14s-1.11-.79-1.64-1.2a11.79 11.79 0 0 1-1.46-1.34 6.23 6.23 0 0 1-1-1.54 4.13 4.13 0 0 1-.41-1.83 3.49 3.49 0 0 1 .54-1.91 5 5 0 0 1 1.43-1.46 7.61 7.61 0 0 1 2-.92 10.15 10.15 0 0 1 3.54-.22c.48.07.92.16 1.3.25s.72.19 1 .29l.89.29-.18 2.81h-.91l-.09-.17a2.73 2.73 0 0 0-.4-.61 2.92 2.92 0 0 0-.7-.64 4.35 4.35 0 0 0-1.06-.5A5.58 5.58 0 0 0 52 12a2.76 2.76 0 0 0-.94.47 2.1 2.1 0 0 0-.57.73 2.32 2.32 0 0 0-.2 1 2.51 2.51 0 0 0 .71 1.56 11 11 0 0 0 1.65 1.61c.67.53 1.41 1.08 2.19 1.61A25.14 25.14 0 0 1 57 20.69a10.81 10.81 0 0 1 1.74 1.88 3.76 3.76 0 0 1 .71 2.18 4.22 4.22 0 0 1-.39 1.74 4.68 4.68 0 0 1-1.23 1.58 6.59 6.59 0 0 1-2.13 1.13 9.68 9.68 0 0 1-3.07.43M89.15 29.24v-.39-.12a1.62 1.62 0 0 0 0-.21 3.63 3.63 0 0 0-.11-.81 6.44 6.44 0 0 0-.42-1.15l-1.55-3.31H78.95l-1.47 3.21c-.13.31-.28.65-.43 1a2.72 2.72 0 0 0-.21 1 1.18 1.18 0 0 0 0 .22v.5h-3.18v-.4l.08-.07a4.58 4.58 0 0 0 .56-.71 16 16 0 0 0 .78-1.52l7.75-16.29h1.41l7.35 15.67c.17.36.34.71.52 1.05s.35.64.51.91.3.49.43.67a2.19 2.19 0 0 0 .23.33l.06.07v.39zm-8.43-7.59h5.62L83 14.4l-3.31 7.25zM100.81 29.44H99.5l-1.5-.1-1.44-.07H95.3v-.37a4.7 4.7 0 0 0 .14-.63c0-.26.09-.58.13-1s.06-.84.08-1.37 0-1.17 0-1.88v-8.26-1.89c0-.54 0-1-.08-1.4s-.08-.71-.13-1a5.09 5.09 0 0 0-.14-.65v-.38H99.19l1.59-.05h1.56a15 15 0 0 1 3.77.47 8.51 8.51 0 0 1 3.18 1.55 7.56 7.56 0 0 1 2.18 2.82 10.17 10.17 0 0 1 .8 4.25 12 12 0 0 1-.42 3.24 9.12 9.12 0 0 1-1.18 2.56 8 8 0 0 1-1.82 1.9 10 10 0 0 1-2.33 1.3 12.34 12.34 0 0 1-2.7.74 17.8 17.8 0 0 1-3 .23m-1.75-1.7l.65.05h1.23a15.35 15.35 0 0 0 1.89-.12 8.8 8.8 0 0 0 1.84-.43 6.85 6.85 0 0 0 1.67-.88A5.33 5.33 0 0 0 107.7 25a7.06 7.06 0 0 0 .92-2.13 11.31 11.31 0 0 0 .34-3 11 11 0 0 0-.48-3.38 6.62 6.62 0 0 0-1.4-2.47 6.05 6.05 0 0 0-2.28-1.52 9 9 0 0 0-3.15-.52h-1.71l-.83.05h-.42v11.5c0 .84 0 1.66.06 2.44s0 1.25.08 1.73h.29M127.38 29v-.35-.13a1.41 1.41 0 0 0 0-.2 3.07 3.07 0 0 0-.11-.81 6.17 6.17 0 0 0-.42-1.15l-1.5-3.36h-8.17l-1.47 3.21-.43 1a2.72 2.72 0 0 0-.21 1 1.27 1.27 0 0 0 0 .22.24.24 0 0 0 0 .07v.5h-3.17v-.4l.07-.07a5 5 0 0 0 .56-.81 16 16 0 0 0 .78-1.52l7.75-16.29h1.42l7.34 15.67c.17.35.34.7.53 1s.35.64.51.91.3.49.42.67a3.17 3.17 0 0 0 .23.33l.06.07V29zM119 21.43h5.62l-3.36-7.2-3.31 7.25zM76.29 10.42H60.26L60.13 13q.83-.23 1.89-.42c.6-.1 1.34-.19 2.18-.28s1.63-.12 2.56-.13v13.71c0 .53 0 1-.08 1.37s-.08.71-.12 1a4.37 4.37 0 0 1-.14.63v.37h3.72v-.37a5.09 5.09 0 0 1-.14-.63 8.38 8.38 0 0 1-.12-.95c0-.39-.06-.85-.08-1.39s0-1.16 0-1.87V12.15c.93 0 1.79 0 2.56.13s1.58.18 2.18.28 1.34.27 1.89.42z"/><path class="cls-9" d="M1.92 53.5c.05-.18.1-.4.15-.67s.08-.59.12-1 .06-.86.08-1.41 0-1.18 0-1.91v-8.37-1.91c0-.54 0-1-.08-1.42s-.08-.73-.12-1-.1-.49-.15-.67v-.06h3.23v.06c-.05.18-.11.4-.16.67a8.94 8.94 0 0 0-.12 1c0 .4-.06.87-.08 1.42s0 1.18 0 1.91V50.43c0 .54 0 1 .08 1.41a8.94 8.94 0 0 0 .12 1c0 .27.11.49.16.67H1.92zM11 35.09L24.92 49.2v-9.06-1.91c0-.54 0-1-.08-1.42a8.65 8.65 0 0 0-.13-1 5.3 5.3 0 0 0-.15-.67v-.06h2.4v.06a5.49 5.49 0 0 0-.14.67c-.05.26-.09.59-.13 1s-.06.87-.08 1.42 0 1.18 0 1.91v13.67h-.48L12.16 39.72v10.71c0 .54 0 1 .08 1.41s.08.73.12 1 .1.49.15.67h-2.4c0-.18.1-.4.15-.67s.09-.59.13-1 .06-.86.08-1.41 0-1.18 0-1.91v-8.38-1.91c0-.54 0-1-.08-1.42s-.08-.73-.13-1-.1-.49-.15-.67v-.06zM31.92 53.5a5.3 5.3 0 0 0 .15-.67c0-.26.09-.59.12-1s.06-.86.08-1.41 0-1.18 0-1.91v-8.37-1.91c0-.54 0-1-.08-1.42s-.08-.73-.12-1a5.3 5.3 0 0 0-.15-.67v-.06h3.23v.06a5.3 5.3 0 0 0-.15.67c0 .26-.09.59-.13 1s0 .87-.08 1.42 0 1.18 0 1.91V50.43c0 .54.05 1 .08 1.41s.08.73.13 1a5.3 5.3 0 0 0 .15.67h-3.23zM45.34 36.23a28 28 0 0 0-2.88.13c-.85.09-1.59.19-2.21.29s-1.37.27-1.94.43l.4-2.09H53.25L54 35h.49l.39 2.09c-.57-.16-1.22-.3-1.94-.43s-1.36-.2-2.22-.29a28 28 0 0 0-2.88-.13v14.19c0 .54.05 1 .09 1.41a8.94 8.94 0 0 0 .12 1c.05.27.1.49.15.67H45a4 4 0 0 0 .15-.67 8.94 8.94 0 0 0 .12-1c0-.39.07-.86.08-1.41s0-1.18 0-1.91zM58 53.5a4 4 0 0 0 .15-.67 8.94 8.94 0 0 0 .12-1q.06-.59.09-1.41V40.14v-1.91c0-.54 0-1-.09-1.42a8.94 8.94 0 0 0-.12-1 4 4 0 0 0-.15-.67v-.06h3.23v.06c0 .18-.1.4-.15.67a8.94 8.94 0 0 0-.12 1c0 .4-.06.87-.08 1.42s0 1.18 0 1.91V50.43c0 .54 0 1 .08 1.41a8.94 8.94 0 0 0 .12 1c.05.27.1.49.15.67H58zM75.17 34.79a12 12 0 0 1 4.17.7 9.93 9.93 0 0 1 3.3 2 9 9 0 0 1 2.18 3 10.08 10.08 0 0 1 .48 6.33 9.22 9.22 0 0 1-.87 2.24 9.28 9.28 0 0 1-3.32 3.5 10.09 10.09 0 0 1-2.37 1 10.47 10.47 0 0 1-2.8.36 12.16 12.16 0 0 1-4.17-.69 9.83 9.83 0 0 1-3.31-1.95 9 9 0 0 1-2.17-3 9.64 9.64 0 0 1-.79-3.93 9.76 9.76 0 0 1 .3-2.41 9.9 9.9 0 0 1 .87-2.25 9.38 9.38 0 0 1 1.41-2A8.65 8.65 0 0 1 70 36.18a9.62 9.62 0 0 1 2.38-1 10.55 10.55 0 0 1 2.79-.39zm.77 18a7.15 7.15 0 0 0 2.74-.51 6 6 0 0 0 2.14-1.49 6.89 6.89 0 0 0 1.4-2.39 9.39 9.39 0 0 0 .5-3.2 13.48 13.48 0 0 0-.48-3.68 8.78 8.78 0 0 0-1.42-2.93 6.54 6.54 0 0 0-2.36-1.94 7.28 7.28 0 0 0-3.29-.71 7.2 7.2 0 0 0-2.75.51 5.92 5.92 0 0 0-2.14 1.48 6.77 6.77 0 0 0-1.4 2.37 9.49 9.49 0 0 0-.5 3.19 13.46 13.46 0 0 0 .48 3.67 8.64 8.64 0 0 0 1.41 3 6.83 6.83 0 0 0 2.37 2 7.22 7.22 0 0 0 3.3.63z"/><path class="cls-10" d="M192.34 127.18V79.05"/><path class="cls-11" d="M192.34 59.03V9.93"/><path class="cls-12" d="M192.34 73.61v-9.38M197.03 68.92h-9.39"/><path class="cls-14" d="M192.34 73.61v-9.38M197.03 68.92h-9.39"/><path class="cls-7" d="M93.5 38.37a3.14 3.14 0 0 1-3.2 3.17 3.15 3.15 0 1 1 0-6.3 3.14 3.14 0 0 1 3.2 3.13zm-5.63 0a2.43 2.43 0 0 0 2.45 2.51 2.51 2.51 0 0 0 0-5 2.44 2.44 0 0 0-2.45 2.49zM89.8 40h-.72v-3.11a6 6 0 0 1 1.2-.1 2 2 0 0 1 1.09.23.86.86 0 0 1 .3.69.8.8 0 0 1-.65.72.92.92 0 0 1 .58.76 2.62 2.62 0 0 0 .22.79H91a3.08 3.08 0 0 1-.25-.77c-.05-.34-.24-.49-.65-.49h-.3zm0-1.78h.34c.4 0 .73-.13.73-.46s-.21-.47-.67-.47a2.83 2.83 0 0 0-.4 0z"/></g></g></g></svg>