<svg xmlns="http://www.w3.org/2000/svg" viewBox="0 0 402 172"><defs><style>.cls-1{fill:#870051}.cls-2{fill:#830047}.cls-3{fill:#62bb46}.cls-4{fill:#165c7d}.cls-5{fill:#acb0b5}.cls-6{fill:#7ad0e4}.cls-7{fill:#46b72e}.cls-8{fill:url(#linear-gradient)}.cls-9{fill:#fff}</style><linearGradient id="linear-gradient" x1="-83.2" y1="146.42" x2="382.34" y2="146.42" gradientUnits="userSpaceOnUse"><stop offset="0" stop-color="#165c7d"/><stop offset=".29" stop-color="#3b87a3"/><stop offset=".6" stop-color="#5dafc6"/><stop offset=".85" stop-color="#72c7dc"/><stop offset="1" stop-color="#7ad0e4"/></linearGradient></defs><title>global-logo</title><g id="Layer_2" data-name="Layer 2"><g id="all-the-things"><path d="M9.67 101.88c-3.79 0-6.14-2.53-6.14-6.6 0-6.83 6-7.08 10.33-7.27l1.52-.07v-1.55c0-3.41-1.18-4.81-4.06-4.81-2.47 0-3.94 1.29-3.94 3.45v.26H4.15V85c.2-3.8 2.88-6 7.37-6 1.71 0 6.9 0 6.9 6v10.8a46.22 46.22 0 0 0 .25 5.38v.28h-3.12v-2.23a7.18 7.18 0 0 1-5.88 2.65zm4.92-11.38c-3.49.07-7.84.16-7.84 4.65 0 2 .94 4.17 3.59 4.17a5.24 5.24 0 0 0 5-5.19v-3.65zM23.47 101.45v-22h3.05v2.38A6.85 6.85 0 0 1 32.23 79h.26v3.13h-.91c-3.12 0-5.06 2-5.06 5.26v14.08zM35.91 101.45v-22H39v22zm-.29-25.69V72h3.64v3.75zM44.55 108.69V79.45h3v2.13a6.5 6.5 0 0 1 5-2.55c7 0 7 6.26 7 8.93v4.81c0 6.22-2.42 9.11-7.62 9.11a5.24 5.24 0 0 1-4.27-2.37v9.18zm7.32-27.11c-1.65 0-4.27 1.89-4.27 6.94v3.83c0 4.82 2.14 7 4.27 7 3.84 0 4.57-3.12 4.57-8.89s-.73-8.88-4.57-8.88zM64.1 101.45v-22h3.05v22zm-.29-25.69V72h3.64v3.75zM72.74 108.69V79.45h3v2.13a6.5 6.5 0 0 1 5-2.55c7 0 7 6.26 7 8.93v4.81c0 6.22-2.42 9.11-7.62 9.11a5.24 5.24 0 0 1-4.27-2.37v9.18zm7.32-27.11c-1.65 0-4.27 1.89-4.27 6.94v3.83c0 4.82 2.15 7 4.27 7 3.84 0 4.57-3.12 4.57-8.89s-.73-8.88-4.57-8.88zM91.62 101.45v-22h3v2.38a6.85 6.85 0 0 1 5.71-2.8h.26v3.13h-.91c-3.12 0-5.06 2-5.06 5.26v14.08zM108.38 101.88c-3.79 0-6.14-2.53-6.14-6.6 0-6.82 6-7.08 10.33-7.27l1.52-.07v-1.55c0-3.41-1.17-4.81-4.06-4.81-2.46 0-3.93 1.29-3.93 3.45v.26h-3.24v-.28c.19-3.8 2.88-6 7.36-6 1.71 0 6.9 0 6.9 6v10.8a44.45 44.45 0 0 0 .26 5.38v.28h-3.17v-2.24a7.18 7.18 0 0 1-5.83 2.65zm4.92-11.38c-3.49.07-7.84.16-7.84 4.65 0 2 1 4.17 3.6 4.17a5.24 5.24 0 0 0 5-5.19v-3.65zM120.61 101.45v-2.4l8.73-17.04h-8.22v-2.56h11.47v2.45l-8.51 17h8.73v2.55h-12.2zM143.18 101.88c-5 0-7.63-3.15-7.63-9.11v-4.64c0-5.95 2.64-9.1 7.63-9.1s7.62 3.15 7.62 9.1v4.64c0 5.96-2.64 9.11-7.62 9.11zm0-20.3c-3.84 0-4.57 3.11-4.57 8.85s.73 8.89 4.57 8.89 4.57-3.12 4.57-8.89-.75-8.85-4.57-8.85zM155.75 72.01h3.05v29.45h-3.05zM171.37 101.88c-5.06 0-7.62-2.78-7.62-8.26v-5.27c0-6.19 2.56-9.32 7.62-9.32C179 79 179 84.57 179 91v.26h-12.2v1.4c0 3 .79 6.68 4.57 6.68a4.4 4.4 0 0 0 3.26-1.18 4.78 4.78 0 0 0 1.18-3.49v-.26H179v.27c-.29 4.84-2.78 7.2-7.63 7.2zm4.57-13.2c0-4.6-.8-7.1-4.57-7.1s-4.54 2.5-4.57 7.1zM193.33 72.01h3.05v29.45h-3.05zM207.05 101.88c-3.79 0-6.14-2.53-6.14-6.6 0-6.83 6-7.08 10.33-7.27l1.52-.07v-1.55c0-3.41-1.17-4.81-4.06-4.81-2.46 0-3.93 1.29-3.93 3.45v.26h-3.24v-.28c.19-3.8 2.88-6 7.36-6 1.71 0 6.9 0 6.9 6v10.8a44.45 44.45 0 0 0 .26 5.38v.28h-3.17v-2.24a7.18 7.18 0 0 1-5.83 2.65zM212 90.5c-3.49.07-7.84.16-7.84 4.65 0 2 1 4.17 3.6 4.17a5.24 5.24 0 0 0 5-5.19v-3.65zM226.73 101.88c-3.85 0-5.88-2.41-5.88-7V79.45h3.05v15c0 2.35.64 3.49 1.19 4a2.87 2.87 0 0 0 2.11.8c3.36 0 4.4-3.27 4.4-4.46V79.45h3.05v22h-2.71v-2a6.39 6.39 0 0 1-5.21 2.43zM239.64 101.45v-22h3.05v2.38a6.88 6.88 0 0 1 5.72-2.8h.25v3.13h-.9c-3.12 0-5.07 2-5.07 5.26v14.08zM258.31 101.88c-5 0-7.62-3.15-7.62-9.11v-4.64c0-5.95 2.64-9.1 7.62-9.1s7.62 3.15 7.62 9.1v4.64c0 5.96-2.63 9.11-7.62 9.11zm0-20.3c-3.84 0-4.57 3.11-4.57 8.85s.73 8.89 4.57 8.89 4.57-3.12 4.57-8.89-.73-8.85-4.57-8.85zM280.46 101.45l-4.54-9.01-4.75 9.01h-3.43l6.41-11.7-5.43-10.3h3.64l3.74 7.77 4.07-7.77h3.39l-5.74 10.18 6.32 11.82h-3.68zM287.35 101.45v-22h3v22zm-.3-25.69V72h3.65v3.75zM296.75 72.01h3.05v29.45h-3.05z"/><path class="cls-1" d="M35.91 60v-.9a.81.81 0 0 0 0-.29 4.09 4.09 0 0 0 0-.47 8.08 8.08 0 0 0-.25-1.9 15.4 15.4 0 0 0-1-2.67l-3.6-7.71C30.1 46 28.68 46 27 46H16c-1.35 0-2.6 0-3.72.05l-3.44 7.49c-.3.71-.63 1.51-1 2.37a6.35 6.35 0 0 0-.49 2.43 2.23 2.23 0 0 0 0 .5 1.27 1.27 0 0 0 .06.18l.1.15V60H0v-.92l.17-.17A11 11 0 0 0 1.48 57c.54-.94 1.15-2.13 1.8-3.55l18-38h3.27L41.58 52c.38.83.79 1.65 1.21 2.44S43.61 56 44 56.61s.69 1.14 1 1.57.5.71.55.77l.14.16V60zM16.37 42.31h13.04l-7.81-16.9-7.67 16.9zM76.79 60l-.09-.49a4.17 4.17 0 0 0-.54-1.31A17.32 17.32 0 0 0 75 56.42l-10.8-14.5-1.09.08H61.6c-.51 0-1.19 0-1.79-.06-.38 0-.76-.06-1.14-.11v6c0 1.66 0 3.13.07 4.37s.12 2.33.19 3.22a22 22 0 0 0 .27 2.23 15 15 0 0 0 .35 1.48V60h-8.66v-.85c.11-.39.23-.89.34-1.48a22.37 22.37 0 0 0 .27-2.23c.08-.9.14-2 .19-3.2s.08-2.72.08-4.39V28.59c0-1.66 0-3.13-.08-4.38s-.11-2.32-.19-3.22-.16-1.64-.27-2.24-.23-1.1-.34-1.49V16.35l2 .17c.39 0 .81.07 1.28.08h1.49a24.07 24.07 0 0 0 3.2-.28 41.38 41.38 0 0 1 5.35-.28 20 20 0 0 1 5.71.79 14 14 0 0 1 4.6 2.36A11 11 0 0 1 77.56 23a11.58 11.58 0 0 1 1.1 5.11 13.63 13.63 0 0 1-.6 4.12 12.53 12.53 0 0 1-1.7 3.46 12.83 12.83 0 0 1-2.62 2.74A14.53 14.53 0 0 1 71 40.15l10.49 14c.53.72 1 1.35 1.48 1.86a12.71 12.71 0 0 0 1.29 1.33 8.29 8.29 0 0 0 1.14.89 4.82 4.82 0 0 0 1.08.51l.41.14V60zM58.67 38.42c.38.06.77.11 1.15.14.57 0 1.11.08 1.63.08a12.6 12.6 0 0 0 4-.63 7.83 7.83 0 0 0 3-1.89 8.71 8.71 0 0 0 2-3.18 13.32 13.32 0 0 0 .71-4.56 14 14 0 0 0-.51-3.87 7.88 7.88 0 0 0-1.46-2.86 6.38 6.38 0 0 0-2.41-1.79 8.48 8.48 0 0 0-3.44-.64 22.28 22.28 0 0 0-3.32.19c-.58.1-1.05.2-1.42.3zM92.29 60v-.85a11.85 11.85 0 0 0 .32-1.48c.1-.59.2-1.34.28-2.23s.14-2 .18-3.21.07-2.71.07-4.38V28.59c0-1.67 0-3.15-.07-4.38S93 21.88 92.92 21s-.18-1.65-.28-2.25a12.05 12.05 0 0 0-.32-1.47v-.88h8.65v.86a14.59 14.59 0 0 0-.34 1.48 21.88 21.88 0 0 0-.33 2.26c-.07.9-.14 2-.18 3.23s-.08 2.71-.08 4.38v19.25c0 1.66 0 3.13.08 4.37s.11 2.33.18 3.22a22 22 0 0 0 .27 2.23c.11.58.22 1.08.34 1.48V60zM121.17 60.93a28.93 28.93 0 0 1-4.36-.32 35.27 35.27 0 0 1-3.78-.79 30.64 30.64 0 0 1-3.11-1 22 22 0 0 1-2.27-1l-.37-.19 1-7.41h2.24l.14.45a7.67 7.67 0 0 0 1.34 2.45 9.66 9.66 0 0 0 2.23 2.08 11.56 11.56 0 0 0 3 1.44 12.39 12.39 0 0 0 3.7.53 19 19 0 0 0 4.14-.42 8.11 8.11 0 0 0 2.44-1.15 5.29 5.29 0 0 0 1.54-1.74 4.72 4.72 0 0 0 .54-2.24 6.39 6.39 0 0 0-.83-3.22 12.67 12.67 0 0 0-2.24-2.88 29.41 29.41 0 0 0-3.21-2.69l-3.77-2.67c-1.29-.89-2.57-1.83-3.81-2.79a26.54 26.54 0 0 1-3.37-3.11 15.25 15.25 0 0 1-2.43-3.59 9.69 9.69 0 0 1-.94-4.28 8.25 8.25 0 0 1 1.26-4.46 11.51 11.51 0 0 1 3.31-3.4 18 18 0 0 1 4.67-2.15 24.14 24.14 0 0 1 8.22-.5 30.18 30.18 0 0 1 3 .58c.88.22 1.67.45 2.34.67l2.06.69-.32 6.49h-2.12l-.18-.39a6.36 6.36 0 0 0-.92-1.43A7.39 7.39 0 0 0 128.7 21a9.45 9.45 0 0 0-2.47-1.16 11.32 11.32 0 0 0-3.4-.46 10.66 10.66 0 0 0-3.09.41 6.34 6.34 0 0 0-2.19 1.1 4.61 4.61 0 0 0-1.33 1.69 5.28 5.28 0 0 0-.46 2.24 5.91 5.91 0 0 0 1.46 3.76 24.84 24.84 0 0 0 3.83 3.74c1.56 1.25 3.26 2.51 5.07 3.76a62 62 0 0 1 5.18 4 24.42 24.42 0 0 1 4 4.38 8.73 8.73 0 0 1 1.7 5.09 9.79 9.79 0 0 1-.91 4.05 10.42 10.42 0 0 1-2.85 3.68 14.9 14.9 0 0 1-4.94 2.64 22.49 22.49 0 0 1-7.13 1.01zM205.81 60v-.8l.05-.1a1.47 1.47 0 0 0 0-.28 4.4 4.4 0 0 0 0-.48 8.71 8.71 0 0 0-.25-1.9 16.28 16.28 0 0 0-1-2.67l-3.6-7.71c-1.11 0-2.53-.05-4.24-.05h-11c-1.35 0-2.59 0-3.71.05l-3.42 7.48c-.31.71-.64 1.51-1 2.37a6.55 6.55 0 0 0-.49 2.43 2.14 2.14 0 0 0 0 .5.52.52 0 0 0 .06.18l.1.15V60h-7.55v-.92l.16-.17a10 10 0 0 0 1.46-1.91c.55-.94 1.15-2.13 1.81-3.55l18-38h3.28l17 36.52c.39.83.79 1.65 1.22 2.44s.81 1.5 1.18 2.13.69 1.14 1 1.57.49.71.54.77l.14.16V60zm-19.54-17.7h13.04l-7.81-16.8-7.66 16.9zM232.86 60.49c-.83 0-1.85 0-3-.08l-3.53-.16-3.33-.16c-1-.05-1.85-.08-2.41-.08h-.61v-.85a14.32 14.32 0 0 0 .35-1.48 22.41 22.41 0 0 0 .28-2.23c.08-.89.15-2 .19-3.21s.06-2.73.06-4.38V28.59c0-1.66 0-3.14-.06-4.41s-.11-2.36-.19-3.26-.17-1.66-.28-2.27a13.35 13.35 0 0 0-.35-1.51v-.88l2 .09h1.96q.58 0 1.95-.06l3.16-.12 3.69-.11c1.26 0 2.48-.06 3.61-.06a34.65 34.65 0 0 1 8.65 1.13 20 20 0 0 1 7.38 3.61 17.65 17.65 0 0 1 5 6.58 24 24 0 0 1 1.85 9.91 27.48 27.48 0 0 1-1 7.55 21 21 0 0 1-2.74 6 18.57 18.57 0 0 1-4.21 4.45 23.89 23.89 0 0 1-5.4 3A30.37 30.37 0 0 1 239.7 60a43.56 43.56 0 0 1-6.84.49zm-4.06-4c.48.05 1 .08 1.51.11l1.58.08h1.28a36.55 36.55 0 0 0 4.38-.28 19.36 19.36 0 0 0 4.28-1 15.88 15.88 0 0 0 3.86-2 12.69 12.69 0 0 0 3.15-3.32 17.18 17.18 0 0 0 2.15-5 27.31 27.31 0 0 0 .79-7 25.53 25.53 0 0 0-1.13-7.9 15.65 15.65 0 0 0-3.25-5.76 13.66 13.66 0 0 0-5.27-3.42 20.36 20.36 0 0 0-7.31-1.22h-1.87l-2.1.09c-.69 0-1.33.07-1.94.12l-1 .07-.07 5.94c0 .89 0 1.79-.05 2.72l-.06 5.28v6.96c0 1.88 0 3.79.07 5.77s.08 3.86.14 5.67c0 1.57.12 2.93.18 4zM294.49 60v-.8l.05-.1a1.29 1.29 0 0 0 0-.29 4.09 4.09 0 0 0 0-.47 8.64 8.64 0 0 0-.25-1.9 16.28 16.28 0 0 0-1-2.67l-3.6-7.71c-1.1 0-2.53-.05-4.24-.05h-11c-1.36 0-2.61 0-3.72.05l-3.42 7.48c-.31.71-.64 1.51-1 2.37a6.55 6.55 0 0 0-.49 2.43 2.14 2.14 0 0 0 .05.5 1.06 1.06 0 0 0 .05.18l.1.15V60h-7.56v-.92l.17-.17a10 10 0 0 0 1.43-1.91c.54-.93 1.15-2.13 1.81-3.55l18-38h3.28l17 36.52c.38.82.79 1.64 1.22 2.44s.81 1.51 1.18 2.13.69 1.14 1 1.57.49.71.54.77l.14.16V60zM275 42.31h13.04l-7.81-16.8-7.67 16.9zM176 16.12l-.55.05h-1.1l-1.65.07H142.11l-1.66-.07h-1.09l-.55-.05-.3 6h.06c1.29-.35 2.76-.68 4.39-1 1.4-.23 3.1-.45 5.06-.66 1.78-.19 3.78-.29 5.95-.31v27.7c0 1.67 0 3.14-.06 4.38s-.11 2.31-.19 3.21-.17 1.64-.27 2.23a11.65 11.65 0 0 1-.33 1.48V60h8.64v-.85a15 15 0 0 1-.35-1.48 22 22 0 0 1-.27-2.23c-.07-.89-.13-2-.19-3.22s-.07-2.71-.07-4.37V20.16c2.17 0 4.17.12 5.95.31 2 .21 3.66.43 5.06.66 1.63.29 3.11.62 4.38 1h.06z"/><path class="cls-2" d="M300.25 15.63a4.91 4.91 0 1 1-4.88 4.9 4.9 4.9 0 0 1 4.88-4.9m0 9a4.08 4.08 0 1 0-4.05-4.08 4.06 4.06 0 0 0 4.05 4.08m1.54-1.35l-.73-1.15c-.65-1-.89-1.14-1.24-1.14h-.12v2.29h-1.17v-5.5h1.74a1.6 1.6 0 0 1 1.81 1.58 1.31 1.31 0 0 1-.81 1.28 12.37 12.37 0 0 1 1.81 2.64zM300 18.64h-.34v1.51h.34c.51 0 .87-.26.87-.76s-.36-.75-.87-.75"/><path class="cls-3" d="M373.1 67c2.17 1 4.26 1.9 6.19 2.67A227.82 227.82 0 0 0 402 52.2q-2.08-4.74-4.39-9.25A113.58 113.58 0 0 1 373.1 67z"/><path class="cls-4" d="M345.39 19.07c-2.17-1-4.26-1.9-6.19-2.67a227.31 227.31 0 0 0-22.93 17.69c1.39 3.19 2.87 6.3 4.41 9.32a113.46 113.46 0 0 1 24.71-24.34z"/><path class="cls-1" d="M335.33 57c-1 2.18-1.89 4.28-2.65 6.22a229.28 229.28 0 0 0 17.6 23.05c3.17-1.4 6.27-2.89 9.27-4.44A113.92 113.92 0 0 1 335.33 57z"/><path class="cls-5" d="M372.54 41.49a58.13 58.13 0 0 0-13.85-12.56l-1 .8a58.07 58.07 0 0 0-12.5 13.87l.78 1a58.4 58.4 0 0 0 13.83 12.58l1-.8a57.94 57.94 0 0 0 12.5-13.88z"/><path class="cls-6" d="M383.25 29.27c1-2.18 1.89-4.27 2.65-6.22A229.38 229.38 0 0 0 368.31 0C365.13 1.4 362 2.89 359 4.44a113.9 113.9 0 0 1 24.25 24.83zM335.69 10.73a114.89 114.89 0 0 1 22 10.25 74.88 74.88 0 0 1 20.59 17.88c1.5-2.53 2.83-5 4-7.48A110.43 110.43 0 0 0 346.53 1q-5.53 4.56-10.84 9.73z"/><path class="cls-7" d="M381.35 41.31A75.22 75.22 0 0 1 363.56 62c2.52 1.5 5 2.84 7.45 4a110.91 110.91 0 0 0 30.26-35.93q-4.57-5.53-9.73-10.87a115.5 115.5 0 0 1-10.19 22.11z"/><path class="cls-4" d="M337.14 44.8a75.05 75.05 0 0 1 17.79-20.7c-2.52-1.51-5-2.84-7.45-4a110.89 110.89 0 0 0-30 35.5q4.56 5.52 9.67 10.83a115.32 115.32 0 0 1 9.99-21.63z"/><path class="cls-1" d="M382.72 75.44a114.47 114.47 0 0 1-21.79-10.19 75 75 0 0 1-20.59-17.88c-1.5 2.53-2.82 5.05-4 7.49a110.62 110.62 0 0 0 35.53 30.3q5.53-4.57 10.85-9.72z"/><path class="cls-8" d="M.09 120.84h307.7V172H.09z"/><path class="cls-9" d="M28.49 147v-.06a11 11 0 0 1 11.28-11.24 11.14 11.14 0 0 1 8.52 3.3l-3 3.51a8 8 0 0 0-5.54-2.45c-3.64 0-6.27 3-6.27 6.77v.06c0 3.73 2.57 6.84 6.27 6.84 2.48 0 4-1 5.69-2.55l3 3.07a11.05 11.05 0 0 1-8.87 3.89A10.94 10.94 0 0 1 28.49 147zM59.67 135.9h4.38l9.27 21.89h-5l-2-4.87h-9.1l-2 4.87H50.4zm5 12.79l-2.87-7.05-2.88 7.05zM76.66 136.05h9.89a8.58 8.58 0 0 1 6.3 2.21 6.83 6.83 0 0 1 1.86 5v.06a6.76 6.76 0 0 1-4.64 6.68l5.28 7.76h-5.56l-4.63-6.95h-3.74v6.95h-4.76zm9.58 10.56c2.32 0 3.65-1.24 3.65-3.07v-.07c0-2.05-1.43-3.1-3.74-3.1h-4.73v6.24zM99 136.05h16.32v4.26h-11.59v4.41h10.2V149h-10.2v4.57h11.74v4.25H99zM127.49 154.63l2.81-3.39a9.94 9.94 0 0 0 6.46 2.64c2 0 3.12-.78 3.12-2v-.06c0-1.21-.74-1.84-4.35-2.77-4.36-1.11-7.17-2.33-7.17-6.64v-.07c0-3.94 3.15-6.55 7.57-6.55a12.52 12.52 0 0 1 8 2.76l-2.47 3.61a10.11 10.11 0 0 0-5.62-2.15c-1.83 0-2.79.84-2.79 1.9v.06c0 1.43.93 1.9 4.67 2.86 4.39 1.15 6.86 2.73 6.86 6.52v.06c0 4.32-3.28 6.74-7.94 6.74a13.77 13.77 0 0 1-9.15-3.52zM148.41 148.48v-12.43h4.76v12.3c0 3.54 1.76 5.37 4.67 5.37s4.66-1.77 4.66-5.21v-12.46h4.76v12.27c0 6.58-3.68 9.81-9.49 9.81s-9.36-3.26-9.36-9.65zM172.11 136.05H181c5.16 0 8.28 3.08 8.28 7.52v.06c0 5-3.89 7.64-8.75 7.64h-3.61v6.52h-4.76zm8.53 11c2.38 0 3.77-1.43 3.77-3.3v-.06c0-2.14-1.48-3.29-3.86-3.29h-3.68v6.6zM192.75 136.05h8.84c5.16 0 8.28 3.08 8.28 7.52v.06c0 5-3.89 7.64-8.74 7.64h-3.62v6.52h-4.76zm8.53 11c2.38 0 3.77-1.43 3.77-3.3v-.06c0-2.14-1.48-3.29-3.86-3.29h-3.68v6.6zM212.44 147v-.06a11.5 11.5 0 0 1 23-.06v.06a11.22 11.22 0 0 1-11.53 11.25A11.11 11.11 0 0 1 212.44 147zm18 0v-.06a6.59 6.59 0 0 0-6.55-6.83 6.49 6.49 0 0 0-6.49 6.77v.06a6.59 6.59 0 0 0 6.55 6.84 6.49 6.49 0 0 0 6.5-6.78zM239.66 136.05h9.89a8.58 8.58 0 0 1 6.3 2.21 6.86 6.86 0 0 1 1.85 5v.06a6.75 6.75 0 0 1-4.63 6.74l5.28 7.76h-5.56l-4.63-6.95h-3.74v6.95h-4.76zm9.58 10.56c2.31 0 3.64-1.24 3.64-3.07v-.07c0-2.05-1.42-3.1-3.74-3.1h-4.72v6.24zM267 140.46h-6.58v-4.41h17.92v4.41h-6.59v17.33H267z"/></g></g></svg>